<svg width="50" height="50" viewBox="0 0 279 259" fill="none" xmlns="http://www.w3.org/2000/svg">
<path d="M210 158.5C210 177 188 225 141 225C91.5 225 70 174 70 158.5C70 121.773 101.788 92 141 92C180.212 92 210 121.773 210 158.5Z" fill="#726363"/>
<ellipse cx="101.5" cy="146.5" rx="6.5" ry="11.5" fill="#1F1E1E"/>
<ellipse cx="182.5" cy="146.5" rx="6.5" ry="11.5" fill="#1F1E1E"/>
<path d="M134 173C134 176.314 145.523 179 140 179C134.477 179 130 176.314 130 173C130 169.686 134.477 167 140 167C145.523 167 134 169.686 134 173Z" fill="#1F1E1E"/>
<path d="M158.5 197C158.5 200.5 149.941 208 140 208C130.059 208 121.5 200 121.5 197C121.5 192.279 130.059 203.5 140 203.5C149.941 203.5 158.5 192.279 158.5 197Z" fill="#1F1E1E"/>
<path d="M130.679 132.365C116.924 118.592 65.0551 128.363 65 128.352C65.955 131.465 66.7753 134.538 67.5282 137.575C71.3787 137.902 71.6052 145.008 71.9909 147.608C73.858 160.17 84.0872 169.423 105.623 168.985C127.208 168.065 132.252 155.231 133.14 147.15C134.101 138.34 130.667 132.396 130.679 132.365ZM128.218 147.794C127.11 159.048 118.699 165.636 105.097 166.179C103.719 166.239 102.379 166.249 101.105 166.204C79.6735 166.174 76.0066 150.766 75.5843 141.02C75.3088 135.443 80.1632 130.666 87.0011 130.113C90.9373 129.796 95.3632 129.796 100.481 129.796C116.495 129.796 123.468 132.934 125.322 135.453C126.406 136.947 128.836 141.684 128.218 147.794Z" fill="#30A9DE"/>
<path d="M145.86 147.15C146.748 155.226 151.792 168.06 173.377 168.985C194.913 169.423 205.142 160.165 207.009 147.608C207.389 145.008 207.621 137.902 211.472 137.575C212.219 134.538 213.045 131.465 214 128.352C213.945 128.363 162.083 118.592 148.321 132.365C148.327 132.396 144.893 138.34 145.86 147.15ZM153.678 135.448C155.532 132.929 162.505 129.791 178.519 129.791C183.637 129.791 188.063 129.791 191.999 130.107C198.843 130.661 203.691 135.438 203.416 141.015C202.993 150.761 199.327 166.169 177.895 166.199C176.621 166.244 175.275 166.234 173.903 166.174C160.301 165.631 151.89 159.043 150.782 147.789C150.158 141.684 152.588 136.947 153.678 135.448Z" fill="#30A9DE"/>
<path d="M148.805 143.187C148.805 143.187 145.285 140.909 139.139 140.909C133.378 140.909 130.201 143.187 130.201 143.187C129.258 141.05 128.322 138.923 127.373 136.791C135.46 136.796 143.546 136.796 151.633 136.791C150.678 138.923 149.741 141.05 148.805 143.187Z" fill="#30A9DE"/>
<path d="M224.083 120.083C224.083 117.48 222.383 115.194 219.795 113.75C222.383 112.306 224.083 110.02 224.083 107.417C224.083 104.411 221.821 101.827 218.526 100.488C219.351 99.2277 219.854 97.8312 219.854 96.3333C219.854 91.9475 215.862 88.2932 210.465 87.2007C211.053 86.105 211.396 84.9175 211.396 83.6667C211.396 78.4195 205.716 74.1667 198.708 74.1667C198.51 74.1667 198.324 74.2047 198.129 74.211C196.264 68.7327 189.688 64.6667 181.792 64.6667C179.686 64.6667 177.694 64.9897 175.833 65.5153C173.097 61.2783 167.353 58.3333 160.646 58.3333C157.719 58.3333 155.008 58.9413 152.61 59.9198C149.51 57.0445 144.82 55.1667 139.5 55.1667C134.18 55.1667 129.49 57.0445 126.39 59.9198C123.992 58.9413 121.281 58.3333 118.354 58.3333C111.647 58.3333 105.904 61.2783 103.167 65.5153C101.306 64.9897 99.3145 64.6667 97.2084 64.6667C89.3125 64.6667 82.7361 68.7327 80.8711 74.211C80.6765 74.2047 80.4905 74.1667 80.2917 74.1667C73.284 74.1667 67.6042 78.4195 67.6042 83.6667C67.6042 84.9175 67.9467 86.105 68.5346 87.2007C63.1382 88.2932 59.1459 91.9475 59.1459 96.3333C59.1459 97.8312 59.6491 99.2277 60.4738 100.488C57.1793 101.827 54.9167 104.411 54.9167 107.417C54.9167 110.02 56.6168 112.306 59.2051 113.75C56.6168 115.194 54.9167 117.48 54.9167 120.083C54.9167 122.686 56.6168 124.973 59.2051 126.417C56.6168 127.861 54.9167 130.147 54.9167 132.75C54.9167 135.923 57.4246 138.637 61.0194 139.9C59.8648 140.983 59.1459 142.339 59.1459 143.833C59.1459 146.598 61.5226 148.922 64.8214 149.787V149.79C63.9079 150.803 63.375 152.022 63.375 153.333C63.375 156.832 67.1601 159.667 71.8334 159.667C76.5066 159.667 80.2917 156.832 80.2917 153.333C80.2917 151.43 79.1498 149.745 77.3736 148.583C79.1498 147.421 80.2917 145.736 80.2917 143.833C80.2917 141.93 79.1498 140.245 77.3736 139.083C79.1498 137.921 80.2917 136.236 80.2917 134.333C80.2917 133.019 79.7588 131.8 78.8411 130.787C82.1398 129.925 84.5209 127.598 84.5209 124.833C84.5209 124.779 84.4997 124.729 84.4997 124.675C89.3336 123.947 92.9792 120.751 92.9792 116.917C92.9792 116.356 92.8946 115.811 92.7466 115.283C92.7804 115.238 92.81 115.191 92.8439 115.146C93.5713 115.264 94.3198 115.333 95.0938 115.333C99.2299 115.333 102.778 113.535 104.512 110.944C107.219 113.595 111.44 115.333 116.24 115.333C120.706 115.333 124.664 113.82 127.379 111.476C130.45 113.848 134.738 115.333 139.5 115.333C144.262 115.333 148.55 113.848 151.621 111.476C154.336 113.82 158.294 115.333 162.76 115.333C167.561 115.333 171.781 113.595 174.488 110.944C176.222 113.535 179.77 115.333 183.906 115.333C184.744 115.333 185.547 115.241 186.325 115.105C186.144 115.688 186.021 116.29 186.021 116.917C186.021 120.751 189.666 123.947 194.5 124.675C194.5 124.729 194.479 124.779 194.479 124.833C194.479 127.598 196.86 129.925 200.159 130.787C199.241 131.8 198.708 133.019 198.708 134.333C198.708 136.236 199.85 137.921 201.626 139.083C199.85 140.245 198.708 141.93 198.708 143.833C198.708 145.736 199.85 147.421 201.626 148.583C199.85 149.745 198.708 151.43 198.708 153.333C198.708 156.832 202.493 159.667 207.167 159.667C211.84 159.667 215.625 156.832 215.625 153.333C215.625 152.019 215.092 150.8 214.174 149.787C217.473 148.925 219.854 146.598 219.854 143.833C219.854 142.339 219.135 140.983 217.981 139.9C221.575 138.637 224.083 135.923 224.083 132.75C224.083 130.147 222.383 127.861 219.795 126.417C222.383 124.973 224.083 122.686 224.083 120.083Z" fill="url(#paint0_radial)"/>
<path opacity="0.1" d="M191.561 99.2087C188.216 97.0395 181.06 96.0388 178.971 95.9407C174.285 95.7222 172.581 91.1178 167.95 90.5257C164.291 90.057 156.878 94.2243 154.344 94.6518C151.811 95.0762 143.543 90 139.5 90C133.211 90 127.844 95.035 123.175 95.035C118.76 95.035 113.533 90.9088 107.16 92.4573C100.786 94.0058 102.512 97.6158 98.549 98.9047C94.3537 100.27 89.2491 97.3562 84.2586 101.356C80.2663 104.551 84.7746 110.897 82.0214 117.344C81.0868 119.532 67.3843 130.236 80.2917 134.333C80.2917 133.019 79.7588 131.8 78.8411 130.787C82.1398 129.925 84.5209 127.598 84.5209 124.833C84.5209 124.78 84.4997 124.729 84.4997 124.675C89.3336 123.947 92.9792 120.752 92.9792 116.917C92.9792 116.356 92.8946 115.812 92.7466 115.283C92.7804 115.238 92.81 115.191 92.8439 115.147C93.5713 115.264 94.3198 115.333 95.0938 115.333C99.2299 115.333 102.778 113.535 104.512 110.944C107.219 113.595 111.439 115.333 116.24 115.333C120.706 115.333 124.664 113.82 127.379 111.476C130.45 113.848 134.738 115.333 139.5 115.333C144.262 115.333 148.55 113.848 151.621 111.476C154.336 113.82 158.294 115.333 162.76 115.333C167.561 115.333 171.781 113.595 174.488 110.944C176.222 113.535 179.77 115.333 183.906 115.333C184.744 115.333 185.547 115.242 186.325 115.105C186.143 115.688 186.021 116.29 186.021 116.917C186.021 120.752 189.666 123.947 194.5 124.675C194.5 124.729 194.479 124.78 194.479 124.833C194.479 127.598 196.86 129.925 200.159 130.787C199.241 131.8 198.708 133.019 198.708 134.333C198.708 134.698 198.784 135.043 198.865 135.388C209.104 128.044 200.493 122.5 197.22 117.727C193.185 111.844 199.656 104.453 191.561 99.2087Z" fill="black"/>
<path opacity="0.12" d="M191.362 99.4525C188.021 97.2802 181.009 96.251 178.92 96.1529C174.234 95.9344 172.475 91.5105 167.844 90.9184C164.186 90.4497 156.806 94.4397 154.272 94.8609C151.722 95.282 143.585 90.399 139.542 90.399C133.254 90.399 127.921 95.2282 123.256 95.2282C118.841 95.2282 113.736 91.292 107.367 92.8374C100.998 94.3827 102.588 97.79 98.6251 99.0789C94.4298 100.444 89.4859 97.695 84.4616 101.59C80.4101 104.731 84.9057 111.112 82.0425 117.468C81.0571 119.631 67.4942 130.204 80.2917 134.333C80.2917 133.019 79.7588 131.8 78.8411 130.787C82.1398 129.925 84.5208 127.598 84.5208 124.833C84.5208 124.78 84.4997 124.729 84.4997 124.675C89.3336 123.947 92.9792 120.752 92.9792 116.917C92.9792 116.356 92.8946 115.812 92.7466 115.283C92.7804 115.238 92.81 115.191 92.8438 115.147C93.5712 115.264 94.3198 115.333 95.0937 115.333C99.2299 115.333 102.778 113.535 104.512 110.944C107.219 113.595 111.439 115.333 116.24 115.333C120.706 115.333 124.664 113.82 127.379 111.476C130.45 113.848 134.738 115.333 139.5 115.333C144.262 115.333 148.55 113.848 151.621 111.476C154.336 113.82 158.294 115.333 162.76 115.333C167.561 115.333 171.781 113.595 174.488 110.944C176.222 113.535 179.77 115.333 183.906 115.333C184.744 115.333 185.547 115.242 186.325 115.105C186.143 115.688 186.021 116.29 186.021 116.917C186.021 120.752 189.666 123.947 194.5 124.675C194.5 124.729 194.479 124.78 194.479 124.833C194.479 127.598 196.86 129.925 200.159 130.787C199.241 131.8 198.708 133.019 198.708 134.333C198.708 134.698 198.784 135.043 198.865 135.388C209.108 127.978 200.282 122.443 197.101 117.629C193.232 111.777 199.338 104.624 191.362 99.4525Z" fill="#0A0603"/>
<path opacity="0.14" d="M191.164 99.6963C187.827 97.5208 180.963 96.4632 178.874 96.365C174.188 96.1465 172.369 91.9063 167.742 91.3142C164.084 90.8455 156.738 94.6613 154.205 95.0762C151.638 95.491 143.636 90.8043 139.589 90.8043C133.3 90.8043 128.005 95.4245 123.336 95.4245C118.921 95.4245 113.939 91.6752 107.57 93.2237C101.201 94.7722 102.66 97.9705 98.697 99.2593C94.5017 100.624 89.7143 98.037 84.6604 101.831C80.5539 104.915 85.0368 111.331 82.0595 117.597C81.0318 119.725 67.5999 130.175 80.2917 134.333C80.2917 133.019 79.7588 131.8 78.8411 130.787C82.1398 129.925 84.5208 127.598 84.5208 124.833C84.5208 124.779 84.4997 124.729 84.4997 124.675C89.3336 123.947 92.9792 120.751 92.9792 116.917C92.9792 116.356 92.8946 115.811 92.7466 115.283C92.7804 115.238 92.81 115.191 92.8438 115.146C93.5713 115.264 94.3198 115.333 95.0938 115.333C99.2299 115.333 102.778 113.535 104.512 110.944C107.219 113.595 111.439 115.333 116.24 115.333C120.706 115.333 124.664 113.82 127.379 111.476C130.45 113.848 134.738 115.333 139.5 115.333C144.262 115.333 148.55 113.848 151.621 111.476C154.336 113.82 158.294 115.333 162.76 115.333C167.561 115.333 171.781 113.595 174.488 110.944C176.222 113.535 179.77 115.333 183.906 115.333C184.744 115.333 185.547 115.241 186.325 115.105C186.143 115.688 186.021 116.29 186.021 116.917C186.021 120.751 189.666 123.947 194.5 124.675C194.5 124.729 194.479 124.779 194.479 124.833C194.479 127.598 196.86 129.925 200.159 130.787C199.241 131.8 198.708 133.019 198.708 134.333C198.708 134.697 198.784 135.043 198.865 135.388C209.112 127.914 200.07 122.385 196.979 117.534C193.274 111.711 199.021 104.798 191.164 99.6963Z" fill="#0A0603"/>
<path opacity="0.16" d="M190.965 99.9433C187.632 97.7647 180.912 96.6785 178.823 96.5803C174.137 96.3618 172.263 92.3022 167.632 91.71C163.974 91.2413 156.662 94.8798 154.124 95.2883C151.54 95.7 143.67 91.2033 139.623 91.2033C133.334 91.2033 128.073 95.6177 123.404 95.6177C118.989 95.6177 114.133 92.0583 107.76 93.6068C101.387 95.1553 102.719 98.1447 98.7562 99.4367C94.5609 100.802 89.93 98.3758 84.8507 102.071C80.685 105.099 85.1552 111.552 82.0637 117.724C81.0064 119.824 67.7099 130.144 80.2917 134.333C80.2917 133.019 79.7588 131.8 78.8411 130.787C82.1398 129.925 84.5209 127.598 84.5209 124.833C84.5209 124.78 84.4997 124.729 84.4997 124.675C89.3336 123.947 92.9792 120.752 92.9792 116.917C92.9792 116.356 92.8946 115.812 92.7466 115.283C92.7804 115.238 92.81 115.191 92.8439 115.147C93.5713 115.264 94.3198 115.333 95.0938 115.333C99.2299 115.333 102.778 113.535 104.512 110.944C107.219 113.595 111.44 115.333 116.24 115.333C120.706 115.333 124.664 113.82 127.379 111.476C130.45 113.848 134.738 115.333 139.5 115.333C144.262 115.333 148.55 113.848 151.621 111.476C154.336 113.82 158.294 115.333 162.76 115.333C167.561 115.333 171.781 113.595 174.488 110.944C176.222 113.535 179.77 115.333 183.906 115.333C184.744 115.333 185.547 115.242 186.325 115.105C186.144 115.688 186.021 116.29 186.021 116.917C186.021 120.752 189.666 123.947 194.5 124.675C194.5 124.729 194.479 124.78 194.479 124.833C194.479 127.598 196.86 129.925 200.159 130.787C199.241 131.8 198.708 133.019 198.708 134.333C198.708 134.698 198.784 135.043 198.865 135.388C209.112 127.848 199.859 122.332 196.86 117.436C193.316 111.647 198.7 104.972 190.965 99.9433Z" fill="black"/>
<path opacity="0.18" d="M190.766 100.187C187.433 98.0085 180.861 96.8939 178.772 96.7957C174.086 96.5772 172.158 92.698 167.527 92.1059C163.868 91.6372 156.59 95.1015 154.053 95.5005C151.456 95.9059 143.712 91.6024 139.665 91.6024C133.376 91.6024 128.149 95.8077 123.484 95.8077C119.069 95.8077 114.336 92.4384 107.967 93.9869C101.598 95.5354 102.795 98.3189 98.8323 99.6109C94.637 100.976 90.1626 98.7147 85.0537 102.306C80.8246 105.279 85.3075 111.774 82.0848 117.848C80.9895 119.922 67.8199 130.112 80.2917 134.333C80.2917 133.019 79.7588 131.8 78.8411 130.787C82.1398 129.925 84.5208 127.598 84.5208 124.833C84.5208 124.78 84.4997 124.729 84.4997 124.675C89.3336 123.947 92.9792 120.752 92.9792 116.917C92.9792 116.356 92.8946 115.812 92.7466 115.283C92.7804 115.238 92.81 115.191 92.8438 115.147C93.5713 115.264 94.3198 115.333 95.0938 115.333C99.2299 115.333 102.778 113.535 104.512 110.944C107.219 113.595 111.439 115.333 116.24 115.333C120.706 115.333 124.664 113.82 127.379 111.476C130.45 113.848 134.738 115.333 139.5 115.333C144.262 115.333 148.55 113.848 151.621 111.476C154.336 113.82 158.294 115.333 162.76 115.333C167.561 115.333 171.781 113.595 174.488 110.944C176.222 113.535 179.77 115.333 183.906 115.333C184.744 115.333 185.547 115.242 186.325 115.105C186.143 115.688 186.021 116.29 186.021 116.917C186.021 120.752 189.666 123.947 194.5 124.675C194.5 124.729 194.479 124.78 194.479 124.833C194.479 127.598 196.86 129.925 200.159 130.787C199.241 131.8 198.708 133.019 198.708 134.333C198.708 134.698 198.784 135.043 198.865 135.388C209.116 127.785 199.647 122.278 196.742 117.338C193.354 111.584 198.37 105.159 190.766 100.187Z" fill="#0A0603"/>
<path opacity="0.2" d="M190.567 100.431C187.239 98.2492 180.815 97.106 178.726 97.0079C174.04 96.7894 172.056 93.0939 167.425 92.5017C163.767 92.033 156.522 95.32 153.985 95.7159C151.371 96.1149 143.759 92.0077 139.711 92.0077C133.423 92.0077 128.234 96.0072 123.565 96.0072C119.149 96.0072 114.539 92.8279 108.17 94.3732C101.801 95.9185 102.867 98.4994 98.9043 99.7882C94.7089 101.153 90.3867 99.0535 85.2525 102.543C80.9641 105.46 85.4386 111.993 82.1018 117.974C80.9641 120.02 67.9256 130.084 80.2917 134.333C80.2917 133.019 79.7588 131.8 78.8411 130.787C82.1398 129.925 84.5209 127.598 84.5209 124.833C84.5209 124.78 84.4997 124.729 84.4997 124.675C89.3337 123.947 92.9792 120.752 92.9792 116.917C92.9792 116.356 92.8946 115.812 92.7466 115.283C92.7804 115.238 92.81 115.191 92.8439 115.147C93.5713 115.264 94.3198 115.333 95.0938 115.333C99.2299 115.333 102.778 113.535 104.512 110.944C107.219 113.595 111.44 115.333 116.24 115.333C120.706 115.333 124.664 113.82 127.379 111.476C130.45 113.848 134.738 115.333 139.5 115.333C144.262 115.333 148.55 113.848 151.621 111.476C154.336 113.82 158.294 115.333 162.76 115.333C167.561 115.333 171.781 113.595 174.488 110.944C176.222 113.535 179.77 115.333 183.906 115.333C184.744 115.333 185.547 115.242 186.325 115.105C186.144 115.688 186.021 116.29 186.021 116.917C186.021 120.752 189.666 123.947 194.5 124.675C194.5 124.729 194.479 124.78 194.479 124.833C194.479 127.598 196.86 129.925 200.159 130.787C199.241 131.8 198.708 133.019 198.708 134.333C198.708 134.698 198.784 135.043 198.865 135.388C209.121 127.721 199.436 122.224 196.619 117.24C193.392 111.521 198.049 105.333 190.567 100.431Z" fill="#120E0B"/>
<path opacity="0.22" d="M190.368 100.678C187.04 98.493 180.764 97.3213 178.675 97.2232C173.989 97.0047 171.946 93.4897 167.319 92.8975C163.661 92.4288 156.455 95.5448 153.909 95.928C151.278 96.327 143.797 92.4067 139.75 92.4067C133.461 92.4067 128.305 96.1972 123.636 96.1972C119.221 96.1972 114.738 93.2047 108.365 94.7532C101.992 96.3017 102.93 98.6735 98.9677 99.9623C94.7723 101.327 90.6024 99.3892 85.447 102.781C81.0952 105.643 85.5697 112.211 82.1145 118.101C80.9387 120.118 68.0356 130.052 80.2917 134.333C80.2917 133.019 79.7588 131.8 78.8411 130.787C82.1398 129.925 84.5209 127.598 84.5209 124.833C84.5209 124.78 84.4997 124.729 84.4997 124.675C89.3336 123.947 92.9792 120.752 92.9792 116.917C92.9792 116.356 92.8946 115.812 92.7466 115.283C92.7804 115.238 92.81 115.191 92.8439 115.147C93.5713 115.264 94.3198 115.333 95.0938 115.333C99.2299 115.333 102.778 113.535 104.512 110.944C107.219 113.595 111.439 115.333 116.24 115.333C120.706 115.333 124.664 113.82 127.379 111.476C130.45 113.848 134.738 115.333 139.5 115.333C144.262 115.333 148.55 113.848 151.621 111.476C154.336 113.82 158.294 115.333 162.76 115.333C167.561 115.333 171.781 113.595 174.488 110.944C176.222 113.535 179.77 115.333 183.906 115.333C184.744 115.333 185.547 115.242 186.325 115.105C186.143 115.688 186.021 116.29 186.021 116.917C186.021 120.752 189.666 123.947 194.5 124.675C194.5 124.729 194.479 124.78 194.479 124.833C194.479 127.598 196.86 129.925 200.159 130.787C199.241 131.8 198.708 133.019 198.708 134.333C198.708 134.698 198.784 135.043 198.865 135.388C209.125 127.655 199.22 122.173 196.501 117.142C193.426 111.461 197.731 105.51 190.368 100.678Z" fill="#0A0603"/>
<path opacity="0.24" d="M190.17 100.922C186.845 98.7337 180.717 97.5335 178.628 97.4385C173.942 97.22 171.845 93.8855 167.214 93.2933C163.555 92.8247 156.383 95.7633 153.837 96.1402C151.194 96.5328 143.839 92.8057 139.792 92.8057C133.503 92.8057 128.386 96.3872 123.717 96.3872C119.301 96.3872 114.941 93.5847 108.568 95.1332C102.195 96.6817 103.002 98.8477 99.0395 100.136C94.8442 101.501 90.8223 99.7217 85.6458 103.015C81.2305 105.821 85.7008 112.429 82.1313 118.224C80.9133 120.213 68.1413 130.02 80.2916 134.333C80.2916 133.019 79.7588 131.8 78.841 130.787C82.1398 129.925 84.5208 127.598 84.5208 124.833C84.5208 124.779 84.4997 124.729 84.4997 124.675C89.3336 123.947 92.9791 120.751 92.9791 116.917C92.9791 116.356 92.8946 115.811 92.7465 115.283C92.7804 115.238 92.81 115.191 92.8438 115.146C93.5712 115.264 94.3198 115.333 95.0937 115.333C99.2299 115.333 102.778 113.535 104.512 110.944C107.219 113.595 111.439 115.333 116.24 115.333C120.706 115.333 124.664 113.82 127.379 111.476C130.45 113.848 134.738 115.333 139.5 115.333C144.262 115.333 148.55 113.848 151.621 111.476C154.336 113.82 158.294 115.333 162.76 115.333C167.56 115.333 171.781 113.595 174.488 110.944C176.222 113.535 179.77 115.333 183.906 115.333C184.744 115.333 185.547 115.241 186.325 115.105C186.143 115.688 186.021 116.29 186.021 116.917C186.021 120.751 189.666 123.947 194.5 124.675C194.5 124.729 194.479 124.779 194.479 124.833C194.479 127.598 196.86 129.925 200.159 130.787C199.241 131.8 198.708 133.019 198.708 134.333C198.708 134.697 198.784 135.043 198.865 135.388C209.129 127.591 199.009 122.123 196.378 117.043C193.46 111.404 197.41 105.688 190.17 100.922Z" fill="#0A0603"/>
<path opacity="0.26" d="M189.975 101.169C186.655 98.9775 180.671 97.752 178.582 97.6539C173.896 97.4354 171.743 94.2845 167.112 93.6924C163.454 93.2237 156.315 95.9882 153.769 96.3587C151.109 96.745 143.886 93.2142 139.838 93.2142C133.55 93.2142 128.466 96.5899 123.797 96.5899C119.382 96.5899 115.144 93.9774 108.775 95.5227C102.406 97.068 103.078 99.0314 99.1157 100.32C94.9203 101.685 91.0507 100.067 85.8488 103.262C81.3701 106.014 85.8361 112.658 82.1525 118.358C80.8922 120.311 68.2512 129.992 80.2917 134.333C80.2917 133.019 79.7588 131.8 78.841 130.787C82.1398 129.925 84.5208 127.598 84.5208 124.833C84.5208 124.78 84.4997 124.729 84.4997 124.675C89.3336 123.947 92.9792 120.752 92.9792 116.917C92.9792 116.356 92.8946 115.812 92.7465 115.283C92.7804 115.238 92.81 115.191 92.8438 115.147C93.5712 115.264 94.3198 115.333 95.0937 115.333C99.2299 115.333 102.778 113.535 104.512 110.944C107.219 113.595 111.439 115.333 116.24 115.333C120.706 115.333 124.664 113.82 127.379 111.476C130.45 113.848 134.738 115.333 139.5 115.333C144.262 115.333 148.55 113.848 151.621 111.476C154.336 113.82 158.294 115.333 162.76 115.333C167.56 115.333 171.781 113.595 174.488 110.944C176.222 113.535 179.77 115.333 183.906 115.333C184.744 115.333 185.547 115.242 186.325 115.105C186.143 115.688 186.021 116.29 186.021 116.917C186.021 120.752 189.666 123.947 194.5 124.675C194.5 124.729 194.479 124.78 194.479 124.833C194.479 127.598 196.86 129.925 200.159 130.787C199.241 131.8 198.708 133.019 198.708 134.333C198.708 134.698 198.784 135.043 198.865 135.388C209.133 127.528 198.793 122.075 196.26 116.948C193.49 111.347 197.089 105.862 189.975 101.169Z" fill="#0A0603"/>
<path opacity="0.28" d="M189.776 101.413C186.461 99.2214 180.624 97.9642 178.535 97.866C173.849 97.6475 171.642 94.6772 167.011 94.085C163.353 93.6164 156.248 96.2067 153.697 96.5677C151.02 96.9508 143.928 93.61 139.881 93.61C133.592 93.61 128.542 96.7767 123.877 96.7767C119.462 96.7767 115.351 94.3542 108.978 95.8995C102.605 97.4449 103.15 99.2023 99.1876 100.491C94.9923 101.856 91.2706 100.399 86.0518 103.493C81.5097 106.188 85.9715 112.87 82.1737 118.478C80.8668 120.41 68.3612 129.96 80.2917 134.333C80.2917 133.019 79.7588 131.8 78.8411 130.787C82.1398 129.925 84.5208 127.598 84.5208 124.833C84.5208 124.78 84.4997 124.729 84.4997 124.675C89.3336 123.947 92.9792 120.752 92.9792 116.917C92.9792 116.356 92.8946 115.812 92.7466 115.283C92.7804 115.238 92.81 115.191 92.8439 115.147C93.5713 115.264 94.3198 115.333 95.0938 115.333C99.2299 115.333 102.778 113.535 104.512 110.944C107.219 113.595 111.439 115.333 116.24 115.333C120.706 115.333 124.664 113.82 127.379 111.476C130.45 113.848 134.738 115.333 139.5 115.333C144.262 115.333 148.55 113.848 151.621 111.476C154.336 113.82 158.294 115.333 162.76 115.333C167.561 115.333 171.781 113.595 174.488 110.944C176.222 113.535 179.77 115.333 183.906 115.333C184.744 115.333 185.547 115.242 186.325 115.105C186.143 115.688 186.021 116.29 186.021 116.917C186.021 120.752 189.666 123.947 194.5 124.675C194.5 124.729 194.479 124.78 194.479 124.833C194.479 127.598 196.86 129.925 200.159 130.787C199.241 131.8 198.708 133.019 198.708 134.333C198.708 134.698 198.784 135.043 198.865 135.388C209.137 127.462 198.577 122.028 196.137 116.85C193.519 111.29 196.771 106.039 189.776 101.413Z" fill="#0D0A06"/>
<path opacity="0.3" d="M189.348 86.089C186.037 82.9069 180.345 81.0427 178.256 80.9004C173.571 80.5835 171.304 76.5382 166.678 75.6796C163.02 75 155.949 78.4989 153.399 79.0178C150.706 79.5642 143.745 75 139.698 75C133.41 75 128.399 79.2933 123.73 79.2933C119.315 79.2933 115.327 76.0515 108.955 78.2968C102.582 80.5422 102.996 82.7876 99.0338 84.6564C94.8388 86.6354 91.2613 84.7528 86.026 89.0966C81.4166 92.9215 85.878 102.67 81.9664 110.664C80.6216 113.424 68.2481 127.084 80.0719 133.471C80.0719 131.565 79.539 129.798 78.6214 128.328C81.9198 127.079 84.3007 123.704 84.3007 119.696C84.3007 119.618 84.2795 119.544 84.2795 119.466C89.113 118.41 92.7583 113.777 92.7583 108.216C92.7583 107.404 92.6737 106.614 92.5257 105.847C92.5595 105.783 92.5891 105.714 92.6229 105.65C93.3503 105.82 94.0988 105.921 94.8727 105.921C99.0084 105.921 102.556 103.313 104.29 99.5565C106.997 103.4 111.217 105.921 116.017 105.921C120.482 105.921 124.44 103.726 127.155 100.328C130.225 103.767 134.513 105.921 139.275 105.921C144.037 105.921 148.325 103.767 151.395 100.328C154.11 103.726 158.068 105.921 162.534 105.921C167.333 105.921 171.554 103.4 174.26 99.5565C175.994 103.313 179.542 105.921 183.678 105.921C184.515 105.921 185.318 105.787 186.096 105.59C185.915 106.435 185.792 107.307 185.792 108.216C185.792 113.777 189.437 118.41 194.271 119.466C194.271 119.544 194.25 119.618 194.25 119.696C194.25 123.704 196.63 127.079 199.929 128.328C199.011 129.798 198.478 131.565 198.478 133.471C198.478 133.999 198.554 134.499 198.635 135C208.911 123.415 198.132 115.559 195.789 107.978C193.315 99.979 196.22 92.6965 189.348 86.089Z" fill="#0A0603"/>
<path opacity="0.32" d="M189.379 101.903C186.072 99.7058 180.523 98.3948 178.434 98.2966C173.748 98.0781 171.426 95.472 166.795 94.8798C163.137 94.4111 156.095 96.65 153.549 96.9983C150.838 97.3688 144.008 94.4175 139.965 94.4175C133.676 94.4175 128.699 97.1693 124.03 97.1693C119.614 97.1693 115.749 95.1236 109.38 96.6721C103.007 98.2206 103.29 99.5633 99.3272 100.852C95.1318 102.217 91.6977 101.077 86.4494 103.978C81.7719 106.562 86.2337 113.319 82.2075 118.741C80.8161 120.606 68.5769 129.9 80.2917 134.333C80.2917 133.019 79.7588 131.8 78.8411 130.787C82.1398 129.925 84.5209 127.598 84.5209 124.833C84.5209 124.779 84.4997 124.729 84.4997 124.675C89.3336 123.947 92.9792 120.751 92.9792 116.917C92.9792 116.356 92.8946 115.811 92.7466 115.283C92.7804 115.238 92.81 115.191 92.8438 115.146C93.5713 115.264 94.3198 115.333 95.0938 115.333C99.2299 115.333 102.778 113.535 104.512 110.944C107.219 113.595 111.439 115.333 116.24 115.333C120.706 115.333 124.664 113.82 127.379 111.476C130.45 113.848 134.738 115.333 139.5 115.333C144.262 115.333 148.55 113.848 151.621 111.476C154.336 113.82 158.294 115.333 162.76 115.333C167.561 115.333 171.781 113.595 174.488 110.944C176.222 113.535 179.77 115.333 183.906 115.333C184.744 115.333 185.547 115.241 186.325 115.105C186.143 115.688 186.021 116.29 186.021 116.917C186.021 120.751 189.666 123.947 194.5 124.675C194.5 124.729 194.479 124.779 194.479 124.833C194.479 127.598 196.86 129.925 200.159 130.787C199.241 131.8 198.708 133.019 198.708 134.333C198.708 134.697 198.784 135.043 198.865 135.388C209.146 127.335 198.146 121.936 195.9 116.654C193.57 111.182 196.129 106.387 189.379 101.903Z" fill="#0A0603"/>
<path opacity="0.34" d="M189.18 102.147C185.873 99.9465 180.476 98.607 178.387 98.5088C173.701 98.2903 171.324 95.8647 166.694 95.2725C163.035 94.8038 156.028 96.8653 153.477 97.2073C150.754 97.5715 144.051 94.8133 140.008 94.8133C133.719 94.8133 128.775 97.3593 124.11 97.3593C119.695 97.3593 115.956 95.5037 109.583 97.049C103.21 98.5943 103.362 99.7343 99.399 101.023C95.2037 102.388 91.9134 101.406 86.6481 104.209C81.903 106.736 86.3648 113.531 82.2244 118.861C80.7907 120.701 68.6868 129.868 80.2917 134.333C80.2917 133.019 79.7588 131.8 78.8411 130.787C82.1398 129.925 84.5208 127.598 84.5208 124.833C84.5208 124.779 84.4997 124.729 84.4997 124.675C89.3336 123.947 92.9792 120.751 92.9792 116.917C92.9792 116.356 92.8946 115.811 92.7466 115.283C92.7804 115.238 92.81 115.191 92.8438 115.146C93.5713 115.264 94.3198 115.333 95.0938 115.333C99.2299 115.333 102.778 113.535 104.512 110.944C107.219 113.595 111.439 115.333 116.24 115.333C120.706 115.333 124.664 113.82 127.379 111.476C130.45 113.848 134.738 115.333 139.5 115.333C144.262 115.333 148.55 113.848 151.621 111.476C154.336 113.82 158.294 115.333 162.76 115.333C167.561 115.333 171.781 113.595 174.488 110.944C176.222 113.535 179.77 115.333 183.906 115.333C184.744 115.333 185.547 115.241 186.325 115.105C186.143 115.688 186.021 116.29 186.021 116.917C186.021 120.751 189.666 123.947 194.5 124.675C194.5 124.729 194.479 124.779 194.479 124.833C194.479 127.598 196.86 129.925 200.159 130.787C199.241 131.8 198.708 133.019 198.708 134.333C198.708 134.697 198.784 135.043 198.865 135.388C209.15 127.268 197.926 121.891 195.778 116.556C193.591 111.131 195.811 106.565 189.18 102.147Z" fill="#0A0603"/>
<path opacity="0.36" d="M188.981 102.391C185.678 100.187 180.426 98.8192 178.336 98.721C173.65 98.5025 171.219 96.2573 166.588 95.6652C162.93 95.1965 155.956 97.0838 153.405 97.4195C150.665 97.7805 144.093 95.2123 140.05 95.2123C133.761 95.2123 128.855 97.5493 124.186 97.5493C119.771 97.5493 116.155 95.8805 109.782 97.429C103.408 98.9775 103.429 99.9085 99.4667 101.197C95.2714 102.562 92.1249 101.739 86.8426 104.443C82.0256 106.913 86.4874 113.747 82.2371 118.985C80.7653 120.799 68.7925 129.837 80.2917 134.333C80.2917 133.019 79.7588 131.8 78.841 130.787C82.1398 129.925 84.5208 127.598 84.5208 124.833C84.5208 124.78 84.4997 124.729 84.4997 124.675C89.3336 123.947 92.9792 120.752 92.9792 116.917C92.9792 116.356 92.8946 115.812 92.7465 115.283C92.7804 115.238 92.81 115.191 92.8438 115.147C93.5712 115.264 94.3198 115.333 95.0937 115.333C99.2299 115.333 102.778 113.535 104.512 110.944C107.219 113.595 111.439 115.333 116.24 115.333C120.706 115.333 124.664 113.82 127.379 111.476C130.45 113.848 134.738 115.333 139.5 115.333C144.262 115.333 148.55 113.848 151.621 111.476C154.336 113.82 158.294 115.333 162.76 115.333C167.561 115.333 171.781 113.595 174.488 110.944C176.222 113.535 179.77 115.333 183.906 115.333C184.744 115.333 185.547 115.242 186.325 115.105C186.143 115.688 186.021 116.29 186.021 116.917C186.021 120.752 189.666 123.947 194.5 124.675C194.5 124.729 194.479 124.78 194.479 124.833C194.479 127.598 196.86 129.925 200.159 130.787C199.241 131.8 198.708 133.019 198.708 134.333C198.708 134.698 198.784 135.043 198.865 135.388C209.154 127.205 197.706 121.847 195.659 116.461C193.612 111.081 195.49 106.739 188.981 102.391Z" fill="black"/>
<path opacity="0.38" d="M188.782 102.638C185.484 100.431 180.379 99.0345 178.29 98.9363C173.604 98.7178 171.113 96.6563 166.486 96.0641C162.828 95.5955 155.888 97.3055 153.338 97.6348C150.58 97.9895 144.139 95.6176 140.096 95.6176C133.808 95.6176 128.936 97.7488 124.267 97.7488C119.851 97.7488 116.358 96.27 109.989 97.8185C103.62 99.367 103.506 100.092 99.5428 101.381C95.3475 102.746 92.3406 102.078 87.0499 104.69C82.1652 107.1 86.627 113.978 82.2625 119.117C80.74 120.897 68.9025 129.808 80.2917 134.333C80.2917 133.019 79.7588 131.8 78.8411 130.787C82.1398 129.925 84.5208 127.598 84.5208 124.833C84.5208 124.779 84.4997 124.729 84.4997 124.675C89.3336 123.947 92.9792 120.751 92.9792 116.917C92.9792 116.356 92.8946 115.811 92.7466 115.283C92.7804 115.238 92.81 115.191 92.8438 115.146C93.5713 115.264 94.3198 115.333 95.0938 115.333C99.2299 115.333 102.778 113.535 104.512 110.944C107.219 113.595 111.439 115.333 116.24 115.333C120.706 115.333 124.664 113.82 127.379 111.476C130.45 113.848 134.738 115.333 139.5 115.333C144.262 115.333 148.55 113.848 151.621 111.476C154.336 113.82 158.294 115.333 162.76 115.333C167.561 115.333 171.781 113.595 174.488 110.944C176.222 113.535 179.77 115.333 183.906 115.333C184.744 115.333 185.547 115.241 186.325 115.105C186.143 115.688 186.021 116.29 186.021 116.917C186.021 120.751 189.666 123.947 194.5 124.675C194.5 124.729 194.479 124.779 194.479 124.833C194.479 127.598 196.86 129.925 200.159 130.787C199.241 131.8 198.708 133.019 198.708 134.333C198.708 134.697 198.784 135.043 198.865 135.388C209.159 127.142 197.486 121.806 195.536 116.362C193.629 111.03 195.173 106.913 188.782 102.638Z" fill="#0A0603"/>
<path opacity="0.4" d="M188.584 102.882C185.289 100.672 180.328 99.2498 178.239 99.1517C173.553 98.9332 171.007 97.0522 166.376 96.46C162.718 95.9913 155.812 97.5272 153.258 97.847C150.483 98.1953 144.173 96.0167 140.13 96.0167C133.841 96.0167 129.007 97.9388 124.338 97.9388C119.923 97.9388 116.553 96.65 110.183 98.1953C103.814 99.7407 103.569 100.26 99.6063 101.552C95.411 102.917 92.5436 102.404 87.2402 104.921C82.2836 107.274 86.7496 114.19 82.2667 119.238C80.7146 120.995 69.0083 129.776 80.2917 134.333C80.2917 133.019 79.7588 131.8 78.8411 130.787C82.1398 129.925 84.5209 127.598 84.5209 124.833C84.5209 124.779 84.4997 124.729 84.4997 124.675C89.3336 123.947 92.9792 120.751 92.9792 116.917C92.9792 116.356 92.8946 115.811 92.7466 115.283C92.7804 115.238 92.81 115.191 92.8439 115.146C93.5713 115.264 94.3198 115.333 95.0938 115.333C99.2299 115.333 102.778 113.535 104.512 110.944C107.219 113.595 111.44 115.333 116.24 115.333C120.706 115.333 124.664 113.82 127.379 111.476C130.45 113.848 134.738 115.333 139.5 115.333C144.262 115.333 148.55 113.848 151.621 111.476C154.336 113.82 158.294 115.333 162.76 115.333C167.561 115.333 171.781 113.595 174.488 110.944C176.222 113.535 179.77 115.333 183.906 115.333C184.744 115.333 185.547 115.241 186.325 115.105C186.144 115.688 186.021 116.29 186.021 116.917C186.021 120.751 189.666 123.947 194.5 124.675C194.5 124.729 194.479 124.779 194.479 124.833C194.479 127.598 196.86 129.925 200.159 130.787C199.241 131.8 198.708 133.019 198.708 134.333C198.708 134.697 198.785 135.043 198.865 135.388C209.163 127.075 197.266 121.765 195.418 116.264C193.646 110.979 194.851 107.09 188.584 102.882Z" fill="#0A0603"/>
<path opacity="0.42" d="M188.385 103.129C185.095 100.915 180.282 99.4652 178.193 99.367C173.507 99.1485 170.906 97.4512 166.275 96.8558C162.617 96.3872 155.744 97.7457 153.19 98.0623C150.403 98.4075 144.22 96.4188 140.177 96.4188C133.888 96.4188 129.088 98.132 124.419 98.132C120.004 98.132 116.76 97.0332 110.386 98.5785C104.013 100.124 103.641 100.437 99.6782 101.729C95.4828 103.094 92.755 102.736 87.439 105.162C82.4063 107.458 86.8765 114.412 82.2836 119.368C80.6892 121.093 69.1182 129.745 80.2917 134.333C80.2917 133.019 79.7588 131.8 78.8411 130.787C82.1398 129.925 84.5208 127.598 84.5208 124.833C84.5208 124.779 84.4997 124.729 84.4997 124.675C89.3336 123.947 92.9792 120.751 92.9792 116.917C92.9792 116.356 92.8946 115.811 92.7466 115.283C92.7804 115.238 92.81 115.191 92.8438 115.146C93.5713 115.264 94.3198 115.333 95.0938 115.333C99.2299 115.333 102.778 113.535 104.512 110.944C107.219 113.595 111.439 115.333 116.24 115.333C120.706 115.333 124.664 113.82 127.379 111.476C130.45 113.848 134.738 115.333 139.5 115.333C144.262 115.333 148.55 113.848 151.621 111.476C154.336 113.82 158.294 115.333 162.76 115.333C167.561 115.333 171.781 113.595 174.488 110.944C176.222 113.535 179.77 115.333 183.906 115.333C184.744 115.333 185.547 115.241 186.325 115.105C186.143 115.688 186.021 116.29 186.021 116.917C186.021 120.751 189.666 123.947 194.5 124.675C194.5 124.729 194.479 124.779 194.479 124.833C194.479 127.598 196.86 129.925 200.159 130.787C199.241 131.8 198.708 133.019 198.708 134.333C198.708 134.697 198.784 135.043 198.865 135.388C209.167 127.012 197.042 121.724 195.295 116.166C193.659 110.932 194.534 107.265 188.385 103.129Z" fill="#0A0603"/>
<path opacity="0.44" d="M188.186 103.373C184.9 101.156 180.231 99.6773 178.142 99.5792C173.456 99.3607 170.8 97.8438 166.169 97.2517C162.511 96.783 155.672 97.9673 153.118 98.2745C150.314 98.6133 144.262 96.821 140.219 96.821C133.93 96.821 129.164 98.3283 124.495 98.3283C120.08 98.3283 116.959 97.4163 110.585 98.9648C104.212 100.513 103.709 100.618 99.7458 101.91C95.5505 103.275 92.958 103.072 87.6377 105.403C82.5331 107.638 87.0076 114.637 82.3005 119.497C80.6638 121.188 69.2282 129.713 80.2917 134.333C80.2917 133.019 79.7588 131.8 78.8411 130.787C82.1398 129.925 84.5208 127.598 84.5208 124.833C84.5208 124.779 84.4997 124.729 84.4997 124.675C89.3336 123.947 92.9792 120.751 92.9792 116.917C92.9792 116.356 92.8946 115.811 92.7466 115.283C92.7804 115.238 92.81 115.191 92.8438 115.146C93.5712 115.264 94.3198 115.333 95.0937 115.333C99.2299 115.333 102.778 113.535 104.512 110.944C107.219 113.595 111.439 115.333 116.24 115.333C120.706 115.333 124.664 113.82 127.379 111.476C130.45 113.848 134.738 115.333 139.5 115.333C144.262 115.333 148.55 113.848 151.621 111.476C154.336 113.82 158.294 115.333 162.76 115.333C167.561 115.333 171.781 113.595 174.488 110.944C176.222 113.535 179.77 115.333 183.906 115.333C184.744 115.333 185.547 115.241 186.325 115.105C186.143 115.688 186.021 116.29 186.021 116.917C186.021 120.751 189.666 123.947 194.5 124.675C194.5 124.729 194.479 124.779 194.479 124.833C194.479 127.598 196.86 129.925 200.159 130.787C199.241 131.8 198.708 133.019 198.708 134.333C198.708 134.697 198.784 135.043 198.865 135.388C209.171 126.949 196.814 121.686 195.177 116.068C193.667 110.884 194.217 107.439 188.186 103.373Z" fill="#0A0603"/>
<path opacity="0.46" d="M187.992 103.617C184.71 101.397 180.185 99.8895 178.1 99.7913C173.414 99.5728 170.699 98.2365 166.072 97.6443C162.414 97.1757 155.609 98.1827 153.05 98.4835C150.229 98.816 144.309 97.2168 140.265 97.2168C133.977 97.2168 129.248 98.5152 124.579 98.5152C120.164 98.5152 117.166 97.7932 110.797 99.3417C104.428 100.89 103.789 100.789 99.8262 102.078C95.6309 103.442 93.1779 103.392 87.845 105.631C82.6642 107.806 87.1429 114.846 82.3259 119.615C80.6385 121.287 69.3339 129.685 80.2917 134.333C80.2917 133.019 79.7588 131.8 78.8411 130.787C82.1398 129.925 84.5208 127.598 84.5208 124.833C84.5208 124.779 84.4997 124.729 84.4997 124.675C89.3336 123.947 92.9792 120.751 92.9792 116.917C92.9792 116.356 92.8946 115.811 92.7466 115.283C92.7804 115.238 92.81 115.191 92.8438 115.146C93.5712 115.264 94.3198 115.333 95.0937 115.333C99.2299 115.333 102.778 113.535 104.512 110.944C107.219 113.595 111.439 115.333 116.24 115.333C120.706 115.333 124.664 113.82 127.379 111.476C130.45 113.848 134.738 115.333 139.5 115.333C144.262 115.333 148.55 113.848 151.621 111.476C154.336 113.82 158.294 115.333 162.76 115.333C167.561 115.333 171.781 113.595 174.488 110.944C176.222 113.535 179.77 115.333 183.906 115.333C184.744 115.333 185.547 115.241 186.325 115.105C186.143 115.688 186.021 116.29 186.021 116.917C186.021 120.751 189.666 123.947 194.5 124.675C194.5 124.729 194.479 124.779 194.479 124.833C194.479 127.598 196.86 129.925 200.159 130.787C199.241 131.8 198.708 133.019 198.708 134.333C198.708 134.697 198.784 135.043 198.865 135.388C209.175 126.882 196.585 121.644 195.059 115.97C193.676 110.84 193.896 107.613 187.992 103.617Z" fill="#0A0603"/>
<path opacity="0.48" d="M187.793 103.864C184.515 101.641 180.138 100.108 178.049 100.01C173.363 99.7913 170.593 98.6386 165.962 98.0465C162.304 97.5778 155.533 98.4106 152.974 98.7051C150.136 99.0313 144.347 97.6253 140.304 97.6253C134.015 97.6253 129.32 98.7178 124.651 98.7178C120.236 98.7178 117.365 98.1858 110.991 99.7311C104.618 101.276 103.852 100.972 99.8896 102.261C95.6943 103.626 93.3767 103.727 88.0395 105.878C82.7869 107.993 87.2656 115.074 82.3386 119.748C80.6131 121.385 69.4439 129.653 80.2917 134.333C80.2917 133.019 79.7588 131.8 78.8411 130.787C82.1398 129.925 84.5208 127.598 84.5208 124.833C84.5208 124.779 84.4997 124.729 84.4997 124.675C89.3336 123.947 92.9792 120.751 92.9792 116.917C92.9792 116.356 92.8946 115.811 92.7466 115.283C92.7804 115.238 92.81 115.191 92.8438 115.146C93.5713 115.264 94.3198 115.333 95.0938 115.333C99.2299 115.333 102.778 113.535 104.512 110.944C107.219 113.595 111.439 115.333 116.24 115.333C120.706 115.333 124.664 113.82 127.379 111.476C130.45 113.848 134.738 115.333 139.5 115.333C144.262 115.333 148.55 113.848 151.621 111.476C154.336 113.82 158.294 115.333 162.76 115.333C167.561 115.333 171.781 113.595 174.488 110.944C176.222 113.535 179.77 115.333 183.906 115.333C184.744 115.333 185.547 115.241 186.325 115.105C186.143 115.688 186.021 116.29 186.021 116.917C186.021 120.751 189.666 123.947 194.5 124.675C194.5 124.729 194.479 124.779 194.479 124.833C194.479 127.598 196.86 129.925 200.159 130.787C199.241 131.8 198.708 133.019 198.708 134.333C198.708 134.697 198.784 135.043 198.865 135.388C209.18 126.819 196.357 121.606 194.936 115.875C193.68 110.792 193.578 107.787 187.793 103.864Z" fill="#0A0603"/>
<path opacity="0.5" d="M187.594 104.107C184.321 101.881 180.087 100.32 177.998 100.222C173.312 100.003 170.487 99.0313 165.856 98.4392C162.198 97.9705 155.461 98.626 152.902 98.9142C150.048 99.234 144.389 98.0243 140.346 98.0243C134.057 98.0243 129.397 98.9078 124.732 98.9078C120.316 98.9078 117.568 98.5627 111.194 100.111C104.821 101.66 103.924 101.147 99.9615 102.435C95.7662 103.8 93.5797 104.054 88.2383 106.112C82.9095 108.164 87.3967 115.289 82.3555 119.871C80.5877 121.483 69.5538 129.621 80.2917 134.333C80.2917 133.019 79.7588 131.8 78.8411 130.787C82.1398 129.925 84.5208 127.598 84.5208 124.833C84.5208 124.779 84.4997 124.729 84.4997 124.675C89.3336 123.947 92.9792 120.751 92.9792 116.917C92.9792 116.356 92.8946 115.811 92.7466 115.283C92.7804 115.238 92.81 115.191 92.8438 115.146C93.5713 115.264 94.3198 115.333 95.0938 115.333C99.2299 115.333 102.778 113.535 104.512 110.944C107.219 113.595 111.439 115.333 116.24 115.333C120.706 115.333 124.664 113.82 127.379 111.476C130.45 113.848 134.738 115.333 139.5 115.333C144.262 115.333 148.55 113.848 151.621 111.476C154.336 113.82 158.294 115.333 162.76 115.333C167.561 115.333 171.781 113.595 174.488 110.944C176.222 113.535 179.77 115.333 183.906 115.333C184.744 115.333 185.547 115.241 186.325 115.105C186.143 115.688 186.021 116.29 186.021 116.917C186.021 120.751 189.666 123.947 194.5 124.675C194.5 124.729 194.479 124.779 194.479 124.833C194.479 127.598 196.86 129.925 200.159 130.787C199.241 131.8 198.708 133.019 198.708 134.333C198.708 134.697 198.784 135.043 198.865 135.388C209.184 126.752 196.124 121.572 194.818 115.777C193.684 110.748 193.261 107.961 187.594 104.107Z" fill="black"/>
<path opacity="0.52" d="M187.395 104.351C184.126 102.122 180.041 100.532 177.952 100.434C173.266 100.216 170.386 99.424 165.755 98.8318C162.096 98.3632 155.393 98.8445 152.83 99.1263C149.959 99.443 144.431 98.4233 140.388 98.4233C134.099 98.4233 129.477 99.101 124.808 99.101C120.393 99.101 117.766 98.9458 111.397 100.494C105.028 102.043 103.996 101.324 100.033 102.613C95.8381 103.978 93.7869 104.383 88.437 106.35C83.0279 108.338 87.5235 115.508 82.3724 119.998C80.5623 121.578 69.6595 129.593 80.2916 134.333C80.2916 133.019 79.7588 131.8 78.841 130.787C82.1398 129.925 84.5208 127.598 84.5208 124.833C84.5208 124.78 84.4997 124.729 84.4997 124.675C89.3336 123.947 92.9791 120.752 92.9791 116.917C92.9791 116.356 92.8946 115.812 92.7465 115.283C92.7804 115.238 92.81 115.191 92.8438 115.147C93.5712 115.264 94.3198 115.333 95.0937 115.333C99.2299 115.333 102.778 113.535 104.512 110.944C107.219 113.595 111.439 115.333 116.24 115.333C120.706 115.333 124.664 113.82 127.379 111.476C130.45 113.848 134.738 115.333 139.5 115.333C144.262 115.333 148.55 113.848 151.621 111.476C154.336 113.82 158.294 115.333 162.76 115.333C167.561 115.333 171.781 113.595 174.488 110.944C176.222 113.535 179.77 115.333 183.906 115.333C184.744 115.333 185.547 115.242 186.325 115.105C186.143 115.688 186.021 116.29 186.021 116.917C186.021 120.752 189.666 123.947 194.5 124.675C194.5 124.729 194.479 124.78 194.479 124.833C194.479 127.598 196.86 129.925 200.159 130.787C199.241 131.8 198.708 133.019 198.708 134.333C198.708 134.698 198.784 135.043 198.865 135.388C209.184 126.689 195.887 121.534 194.695 115.679C193.684 110.704 192.944 108.136 187.395 104.351Z" fill="#0A0603"/>
<path opacity="0.54" d="M187.197 104.598C183.932 102.366 179.99 100.748 177.901 100.653C173.215 100.434 170.276 99.8261 165.649 99.234C161.991 98.7653 155.321 99.0693 152.758 99.3448C149.874 99.6551 144.473 98.8286 140.43 98.8286C134.142 98.8286 129.553 99.2973 124.884 99.2973C120.469 99.2973 117.969 99.3321 111.596 100.877C105.223 102.423 104.064 101.501 100.101 102.79C95.9058 104.155 93.9857 104.709 88.6358 106.59C83.1506 108.515 87.6504 115.729 82.3893 120.128C80.5327 121.676 69.7695 129.561 80.2917 134.333C80.2917 133.019 79.7588 131.8 78.8411 130.787C82.1398 129.925 84.5208 127.598 84.5208 124.833C84.5208 124.779 84.4997 124.729 84.4997 124.675C89.3336 123.947 92.9792 120.751 92.9792 116.917C92.9792 116.356 92.8946 115.811 92.7466 115.283C92.7804 115.238 92.81 115.191 92.8438 115.146C93.5713 115.264 94.3198 115.333 95.0938 115.333C99.2299 115.333 102.778 113.535 104.512 110.944C107.219 113.595 111.439 115.333 116.24 115.333C120.706 115.333 124.664 113.82 127.379 111.476C130.45 113.848 134.738 115.333 139.5 115.333C144.262 115.333 148.55 113.848 151.621 111.476C154.336 113.82 158.294 115.333 162.76 115.333C167.561 115.333 171.781 113.595 174.488 110.944C176.222 113.535 179.77 115.333 183.906 115.333C184.744 115.333 185.547 115.241 186.325 115.105C186.143 115.688 186.021 116.29 186.021 116.917C186.021 120.751 189.666 123.947 194.5 124.675C194.5 124.729 194.479 124.779 194.479 124.833C194.479 127.598 196.86 129.925 200.159 130.787C199.241 131.8 198.708 133.019 198.708 134.333C198.708 134.697 198.784 135.043 198.865 135.388C209.188 126.626 195.651 121.496 194.576 115.58C193.684 110.659 192.623 108.31 187.197 104.598Z" fill="#0A0603"/>
<path opacity="0.56" d="M186.998 104.842C183.737 102.606 179.944 100.963 177.854 100.865C173.168 100.646 170.174 100.219 165.547 99.6267C161.889 99.158 155.254 99.2878 152.691 99.5538C149.79 99.8578 144.52 99.2277 140.477 99.2277C134.188 99.2277 129.633 99.4905 124.969 99.4905C120.553 99.4905 118.177 99.7153 111.803 101.261C105.43 102.806 104.14 101.679 100.177 102.967C95.9819 104.332 94.1972 105.035 88.8388 106.828C83.2732 108.69 87.7815 115.948 82.4105 120.254C80.5116 121.774 69.8837 129.533 80.2959 134.337C80.2959 133.022 79.763 131.803 78.8453 130.79C82.1398 129.925 84.5208 127.598 84.5208 124.833C84.5208 124.78 84.4997 124.729 84.4997 124.675C89.3336 123.947 92.9792 120.752 92.9792 116.917C92.9792 116.356 92.8946 115.811 92.7465 115.283C92.7804 115.238 92.81 115.191 92.8438 115.147C93.5712 115.264 94.3198 115.333 95.0937 115.333C99.2299 115.333 102.778 113.535 104.512 110.944C107.219 113.595 111.439 115.333 116.24 115.333C120.706 115.333 124.664 113.82 127.379 111.476C130.45 113.848 134.738 115.333 139.5 115.333C144.262 115.333 148.55 113.848 151.621 111.476C154.336 113.82 158.294 115.333 162.76 115.333C167.561 115.333 171.781 113.595 174.488 110.944C176.222 113.535 179.77 115.333 183.906 115.333C184.744 115.333 185.547 115.241 186.325 115.105C186.143 115.688 186.021 116.29 186.021 116.917C186.021 120.752 189.666 123.947 194.5 124.675C194.5 124.729 194.479 124.78 194.479 124.833C194.479 127.598 196.86 129.925 200.159 130.787C199.241 131.8 198.708 133.019 198.708 134.333C198.708 134.698 198.784 135.043 198.865 135.388C209.192 126.559 195.414 121.461 194.458 115.482C193.68 110.615 192.305 108.484 186.998 104.842Z" fill="black"/>
<path opacity="0.58" d="M186.799 105.089C183.543 102.847 179.893 101.178 177.804 101.08C173.118 100.862 170.068 100.615 165.437 100.023C161.779 99.5538 155.178 99.5063 152.61 99.7692C149.692 100.067 144.558 99.6298 140.511 99.6298C134.222 99.6298 129.705 99.6837 125.036 99.6837C120.621 99.6837 118.367 100.095 111.998 101.644C105.629 103.192 104.203 101.856 100.241 103.145C96.0453 104.51 94.3917 105.358 89.0291 107.068C83.3874 108.864 87.8999 116.169 82.4189 120.384C80.482 121.869 69.9852 129.501 80.2917 134.333C80.2917 133.019 79.7588 131.8 78.8411 130.787C82.1398 129.925 84.5208 127.598 84.5208 124.833C84.5208 124.779 84.4997 124.729 84.4997 124.675C89.3336 123.947 92.9792 120.751 92.9792 116.917C92.9792 116.356 92.8946 115.811 92.7466 115.283C92.7804 115.238 92.81 115.191 92.8438 115.147C93.5713 115.264 94.3198 115.333 95.0938 115.333C99.2299 115.333 102.778 113.535 104.512 110.944C107.219 113.595 111.439 115.333 116.24 115.333C120.706 115.333 124.664 113.82 127.379 111.476C130.45 113.848 134.738 115.333 139.5 115.333C144.262 115.333 148.55 113.848 151.621 111.476C154.336 113.82 158.294 115.333 162.76 115.333C167.561 115.333 171.781 113.595 174.488 110.944C176.222 113.535 179.77 115.333 183.906 115.333C184.744 115.333 185.547 115.241 186.325 115.105C186.143 115.688 186.021 116.29 186.021 116.917C186.021 120.751 189.666 123.947 194.5 124.675C194.5 124.729 194.479 124.779 194.479 124.833C194.479 127.598 196.86 129.925 200.159 130.787C199.241 131.8 198.708 133.019 198.708 134.333C198.708 134.697 198.784 135.043 198.865 135.388C209.197 126.496 195.169 121.423 194.335 115.387C193.671 110.571 191.988 108.658 186.799 105.089Z" fill="#0D0A06"/>
<path opacity="0.6" d="M186.6 105.333C183.348 103.088 179.846 101.39 177.757 101.292C173.071 101.074 169.967 101.01 165.336 100.418C161.678 99.9497 155.11 99.7248 152.543 99.9813C149.608 100.273 144.605 100.029 140.557 100.029C134.269 100.029 129.786 99.8768 125.117 99.8768C120.701 99.8768 118.57 100.478 112.201 102.027C105.827 103.575 104.275 102.033 100.313 103.322C96.1172 104.687 94.5947 105.684 89.2321 107.306C83.5101 109.035 88.031 116.388 82.4401 120.508C80.4566 121.967 70.0951 129.469 80.2917 134.333C80.2917 133.019 79.7588 131.8 78.8411 130.787C82.1398 129.925 84.5208 127.598 84.5208 124.833C84.5208 124.779 84.4997 124.729 84.4997 124.675C89.3336 123.947 92.9792 120.751 92.9792 116.917C92.9792 116.356 92.8946 115.811 92.7466 115.283C92.7804 115.238 92.81 115.191 92.8438 115.146C93.5712 115.264 94.3198 115.333 95.0937 115.333C99.2299 115.333 102.778 113.535 104.512 110.944C107.219 113.595 111.439 115.333 116.24 115.333C120.706 115.333 124.664 113.82 127.379 111.476C130.45 113.848 134.738 115.333 139.5 115.333C144.262 115.333 148.55 113.848 151.621 111.476C154.336 113.82 158.294 115.333 162.76 115.333C167.561 115.333 171.781 113.595 174.488 110.944C176.222 113.535 179.77 115.333 183.906 115.333C184.744 115.333 185.547 115.241 186.325 115.105C186.143 115.688 186.021 116.29 186.021 116.917C186.021 120.751 189.666 123.947 194.5 124.675C194.5 124.729 194.479 124.779 194.479 124.833C194.479 127.598 196.86 129.925 200.159 130.787C199.241 131.8 198.708 133.019 198.708 134.333C198.708 134.697 198.784 135.043 198.865 135.388C209.201 126.432 194.923 121.388 194.217 115.289C193.663 110.526 191.671 108.832 186.6 105.333Z" fill="#0D0A06"/>
<path opacity="0.62" d="M186.401 105.577C183.153 103.329 179.795 101.606 177.706 101.508C173.02 101.289 169.857 101.406 165.23 100.814C161.572 100.346 155.038 99.9465 152.471 100.194C149.519 100.479 144.647 100.431 140.6 100.431C134.311 100.431 129.866 100.07 125.197 100.07C120.782 100.07 118.777 100.862 112.404 102.407C106.03 103.952 104.347 102.208 100.384 103.496C96.1891 104.861 94.7977 106.004 89.4309 107.54C83.6285 109.203 88.1579 116.603 82.457 120.631C80.4312 122.066 70.2009 129.438 80.2917 134.333C80.2917 133.019 79.7588 131.8 78.841 130.787C82.1398 129.925 84.5208 127.598 84.5208 124.833C84.5208 124.78 84.4997 124.729 84.4997 124.675C89.3336 123.947 92.9792 120.752 92.9792 116.917C92.9792 116.356 92.8946 115.812 92.7465 115.283C92.7804 115.238 92.81 115.191 92.8438 115.147C93.5712 115.264 94.3198 115.333 95.0937 115.333C99.2299 115.333 102.778 113.535 104.512 110.944C107.219 113.595 111.439 115.333 116.24 115.333C120.706 115.333 124.664 113.82 127.379 111.476C130.45 113.848 134.738 115.333 139.5 115.333C144.262 115.333 148.55 113.848 151.621 111.476C154.336 113.82 158.294 115.333 162.76 115.333C167.561 115.333 171.781 113.595 174.488 110.944C176.222 113.535 179.77 115.333 183.906 115.333C184.744 115.333 185.547 115.242 186.325 115.105C186.143 115.688 186.021 116.29 186.021 116.917C186.021 120.752 189.666 123.947 194.5 124.675C194.5 124.729 194.479 124.78 194.479 124.833C194.479 127.598 196.86 129.925 200.159 130.787C199.241 131.8 198.708 133.019 198.708 134.333C198.708 134.697 198.784 135.043 198.865 135.388C209.205 126.366 194.678 121.353 194.094 115.191C193.654 110.482 191.354 109.003 186.401 105.577Z" fill="#050301"/>
<path opacity="0.64" d="M186.203 105.824C182.959 103.572 179.745 101.821 177.656 101.723C172.97 101.504 169.751 101.802 165.125 101.21C161.466 100.741 154.966 100.165 152.395 100.409C149.43 100.687 144.685 100.833 140.638 100.833C134.349 100.833 129.938 100.263 125.269 100.263C120.854 100.263 118.972 101.242 112.602 102.79C106.229 104.339 104.415 102.385 100.452 103.674C96.2568 105.038 94.9965 106.324 89.6254 107.781C83.7427 109.374 88.2806 116.822 82.4655 120.761C80.4016 122.161 70.3108 129.409 80.2917 134.333C80.2917 133.019 79.7588 131.8 78.8411 130.787C82.1398 129.925 84.5208 127.598 84.5208 124.833C84.5208 124.779 84.4997 124.729 84.4997 124.675C89.3336 123.947 92.9792 120.751 92.9792 116.917C92.9792 116.356 92.8946 115.811 92.7466 115.283C92.7804 115.238 92.81 115.191 92.8438 115.146C93.5712 115.264 94.3198 115.333 95.0937 115.333C99.2299 115.333 102.778 113.535 104.512 110.944C107.219 113.595 111.439 115.333 116.24 115.333C120.706 115.333 124.664 113.82 127.379 111.476C130.45 113.848 134.738 115.333 139.5 115.333C144.262 115.333 148.55 113.848 151.621 111.476C154.336 113.82 158.294 115.333 162.76 115.333C167.561 115.333 171.781 113.595 174.488 110.944C176.222 113.535 179.77 115.333 183.906 115.333C184.744 115.333 185.547 115.241 186.325 115.105C186.143 115.688 186.021 116.29 186.021 116.917C186.021 120.751 189.666 123.947 194.5 124.675C194.5 124.729 194.479 124.779 194.479 124.833C194.479 127.598 196.86 129.925 200.159 130.787C199.241 131.8 198.708 133.019 198.708 134.333C198.708 134.697 198.784 135.043 198.865 135.388C209.209 126.303 194.424 121.318 193.976 115.093C193.638 110.441 191.037 109.177 186.203 105.824Z" fill="#0D0A06"/>
<path opacity="0.66" d="M186.008 106.068C182.769 103.813 179.702 102.033 177.613 101.935C172.927 101.717 169.654 102.198 165.023 101.606C161.365 101.137 154.898 100.387 152.327 100.621C149.345 100.897 144.731 101.232 140.684 101.232C134.395 101.232 130.018 100.456 125.353 100.456C120.938 100.456 119.179 101.625 112.81 103.173C106.441 104.722 104.491 102.559 100.528 103.851C96.3329 105.216 95.1994 106.647 89.8326 108.018C83.8695 109.542 88.4116 117.04 82.4908 120.888C80.3762 122.259 70.4208 129.378 80.2916 134.333C80.2916 133.019 79.7588 131.8 78.841 130.787C82.1398 129.925 84.5208 127.598 84.5208 124.833C84.5208 124.78 84.4997 124.729 84.4997 124.675C89.3336 123.947 92.9791 120.752 92.9791 116.917C92.9791 116.356 92.8946 115.812 92.7465 115.283C92.7804 115.238 92.81 115.191 92.8438 115.147C93.5712 115.264 94.3198 115.333 95.0937 115.333C99.2298 115.333 102.778 113.535 104.512 110.944C107.219 113.595 111.439 115.333 116.24 115.333C120.706 115.333 124.664 113.82 127.379 111.476C130.45 113.848 134.738 115.333 139.5 115.333C144.262 115.333 148.55 113.848 151.621 111.476C154.336 113.82 158.294 115.333 162.76 115.333C167.56 115.333 171.781 113.595 174.488 110.944C176.222 113.535 179.77 115.333 183.906 115.333C184.744 115.333 185.547 115.242 186.325 115.105C186.143 115.688 186.021 116.29 186.021 116.917C186.021 120.752 189.666 123.947 194.5 124.675C194.5 124.729 194.479 124.78 194.479 124.833C194.479 127.598 196.86 129.925 200.159 130.787C199.241 131.8 198.708 133.019 198.708 134.333C198.708 134.698 198.784 135.043 198.865 135.388C209.214 126.239 194.17 121.28 193.853 114.995C193.625 110.397 190.719 109.352 186.008 106.068Z" fill="black"/>
<path opacity="0.68" d="M185.809 106.312C182.574 104.051 179.652 102.246 177.563 102.147C172.877 101.929 169.548 102.591 164.917 101.999C161.259 101.53 154.827 100.602 152.255 100.833C149.257 101.102 144.774 101.634 140.726 101.634C134.438 101.634 130.099 100.65 125.43 100.65C121.014 100.65 119.382 102.008 113.008 103.553C106.635 105.099 104.559 102.733 100.596 104.025C96.4006 105.39 95.3982 106.964 90.0272 108.253C83.9837 109.706 88.5343 117.256 82.5035 121.011C80.3509 122.354 70.5265 129.346 80.2917 134.333C80.2917 133.019 79.7588 131.8 78.841 130.787C82.1398 129.925 84.5208 127.598 84.5208 124.833C84.5208 124.78 84.4997 124.729 84.4997 124.675C89.3336 123.947 92.9792 120.752 92.9792 116.917C92.9792 116.356 92.8946 115.812 92.7466 115.283C92.7804 115.238 92.81 115.191 92.8438 115.147C93.5712 115.264 94.3198 115.333 95.0937 115.333C99.2299 115.333 102.778 113.535 104.512 110.944C107.219 113.595 111.439 115.333 116.24 115.333C120.706 115.333 124.664 113.82 127.379 111.476C130.45 113.848 134.738 115.333 139.5 115.333C144.262 115.333 148.55 113.848 151.621 111.476C154.336 113.82 158.294 115.333 162.76 115.333C167.561 115.333 171.781 113.595 174.488 110.944C176.222 113.535 179.77 115.333 183.906 115.333C184.744 115.333 185.547 115.242 186.325 115.105C186.143 115.688 186.021 116.29 186.021 116.917C186.021 120.752 189.666 123.947 194.5 124.675C194.5 124.729 194.479 124.78 194.479 124.833C194.479 127.598 196.86 129.925 200.159 130.787C199.241 131.8 198.708 133.019 198.708 134.333C198.708 134.698 198.784 135.043 198.865 135.388C209.218 126.173 193.912 121.246 193.735 114.896C193.608 110.352 190.402 109.523 185.809 106.312Z" fill="black"/>
<path opacity="0.7" d="M185.611 106.558C182.379 104.294 179.605 102.464 177.516 102.366C172.83 102.147 169.442 102.99 164.816 102.397C161.158 101.929 154.759 100.824 152.183 101.048C149.168 101.311 144.816 102.036 140.769 102.036C134.48 102.036 130.175 100.846 125.506 100.846C121.09 100.846 119.581 102.394 113.207 103.94C106.834 105.488 104.626 102.914 100.664 104.202C96.4682 105.567 95.597 107.28 90.226 108.493C84.1021 109.874 88.6612 117.474 82.5204 121.138C80.3212 122.452 70.6365 129.317 80.2916 134.333C80.2916 133.019 79.7588 131.8 78.841 130.787C82.1398 129.925 84.5208 127.598 84.5208 124.833C84.5208 124.779 84.4997 124.729 84.4997 124.675C89.3336 123.947 92.9791 120.751 92.9791 116.917C92.9791 116.356 92.8946 115.811 92.7465 115.283C92.7804 115.238 92.81 115.191 92.8438 115.146C93.5712 115.264 94.3198 115.333 95.0937 115.333C99.2299 115.333 102.778 113.535 104.512 110.944C107.219 113.595 111.439 115.333 116.24 115.333C120.706 115.333 124.664 113.82 127.379 111.476C130.45 113.848 134.738 115.333 139.5 115.333C144.262 115.333 148.55 113.848 151.621 111.476C154.336 113.82 158.294 115.333 162.76 115.333C167.56 115.333 171.781 113.595 174.488 110.944C176.222 113.535 179.77 115.333 183.906 115.333C184.744 115.333 185.547 115.241 186.325 115.105C186.143 115.688 186.021 116.29 186.021 116.917C186.021 120.751 189.666 123.947 194.5 124.675C194.5 124.729 194.479 124.779 194.479 124.833C194.479 127.598 196.86 129.925 200.159 130.787C199.241 131.8 198.708 133.019 198.708 134.333C198.708 134.697 198.784 135.043 198.865 135.388C209.222 126.109 193.654 121.211 193.616 114.801C193.591 110.308 190.085 109.697 185.611 106.558Z" fill="black"/>
<path opacity="0.72" d="M185.412 106.802C182.189 104.535 179.554 102.676 177.465 102.578C172.779 102.359 169.337 103.385 164.71 102.793C161.052 102.325 154.687 101.045 152.111 101.261C149.079 101.517 144.858 102.435 140.811 102.435C134.522 102.435 130.251 101.036 125.586 101.036C121.171 101.036 119.784 102.771 113.414 104.32C107.045 105.868 104.702 103.088 100.74 104.377C96.5443 105.741 95.8042 107.597 90.429 108.728C84.2205 110.035 88.7923 117.689 82.5416 121.261C80.2959 122.547 70.7464 129.286 80.2916 134.333C80.2916 133.019 79.7588 131.8 78.841 130.787C82.1398 129.925 84.5208 127.598 84.5208 124.833C84.5208 124.779 84.4997 124.729 84.4997 124.675C89.3336 123.947 92.9791 120.751 92.9791 116.917C92.9791 116.356 92.8946 115.811 92.7465 115.283C92.7804 115.238 92.81 115.191 92.8438 115.146C93.5712 115.264 94.3198 115.333 95.0937 115.333C99.2298 115.333 102.778 113.535 104.512 110.944C107.219 113.595 111.439 115.333 116.24 115.333C120.706 115.333 124.664 113.82 127.379 111.476C130.45 113.848 134.738 115.333 139.5 115.333C144.262 115.333 148.55 113.848 151.621 111.476C154.336 113.82 158.294 115.333 162.76 115.333C167.56 115.333 171.781 113.595 174.488 110.944C176.222 113.535 179.77 115.333 183.906 115.333C184.744 115.333 185.547 115.241 186.325 115.105C186.143 115.688 186.021 116.29 186.021 116.917C186.021 120.751 189.666 123.947 194.5 124.675C194.5 124.729 194.479 124.779 194.479 124.833C194.479 127.598 196.86 129.925 200.159 130.787C199.241 131.8 198.708 133.019 198.708 134.333C198.708 134.697 198.784 135.043 198.865 135.388C209.226 126.046 193.388 121.173 193.494 114.703C193.57 110.263 189.772 109.868 185.412 106.802Z" fill="#0A0603"/>
<path opacity="0.74" d="M185.213 107.049C181.995 104.779 179.508 102.892 177.419 102.793C172.733 102.575 169.235 103.781 164.604 103.189C160.946 102.721 154.615 101.264 152.039 101.476C148.994 101.726 144.901 102.841 140.853 102.841C134.565 102.841 130.331 101.235 125.662 101.235C121.247 101.235 119.987 103.161 113.613 104.709C107.24 106.258 104.77 103.272 100.807 104.56C96.612 105.925 95.9988 107.92 90.6235 108.975C84.3347 110.207 88.9107 117.914 82.5543 121.398C80.2705 122.645 70.8522 129.254 80.2917 134.333C80.2917 133.019 79.7588 131.8 78.8411 130.787C82.1398 129.925 84.5208 127.598 84.5208 124.833C84.5208 124.78 84.4997 124.729 84.4997 124.675C89.3336 123.947 92.9792 120.752 92.9792 116.917C92.9792 116.356 92.8946 115.812 92.7466 115.283C92.7804 115.238 92.81 115.191 92.8438 115.147C93.5713 115.264 94.3198 115.333 95.0937 115.333C99.2299 115.333 102.778 113.535 104.512 110.944C107.219 113.595 111.439 115.333 116.24 115.333C120.706 115.333 124.664 113.82 127.379 111.476C130.45 113.848 134.738 115.333 139.5 115.333C144.262 115.333 148.55 113.848 151.621 111.476C154.336 113.82 158.294 115.333 162.76 115.333C167.561 115.333 171.781 113.595 174.488 110.944C176.222 113.535 179.77 115.333 183.906 115.333C184.744 115.333 185.547 115.242 186.325 115.105C186.143 115.688 186.021 116.29 186.021 116.917C186.021 120.752 189.666 123.947 194.5 124.675C194.5 124.729 194.479 124.78 194.479 124.833C194.479 127.598 196.86 129.925 200.159 130.787C199.241 131.8 198.708 133.019 198.708 134.333C198.708 134.697 198.784 135.043 198.865 135.388C209.231 125.98 193.122 121.135 193.375 114.605C193.545 110.219 189.455 110.042 185.213 107.049Z" fill="#0A0603"/>
<path opacity="0.76" d="M185.014 107.293C181.8 105.016 179.457 103.104 177.368 103.005C172.682 102.787 169.13 104.174 164.499 103.582C160.84 103.113 154.543 101.479 151.963 101.685C148.901 101.929 144.939 103.237 140.891 103.237C134.603 103.237 130.403 101.422 125.734 101.422C121.319 101.422 120.181 103.537 113.808 105.083C107.434 106.631 104.834 103.439 100.871 104.728C96.6755 106.093 96.1933 108.227 90.8181 109.203C84.449 110.358 89.0334 118.12 82.567 121.515C80.2409 122.74 70.9621 129.225 80.2917 134.333C80.2917 133.019 79.7588 131.8 78.8411 130.787C82.1398 129.925 84.5208 127.598 84.5208 124.833C84.5208 124.779 84.4997 124.729 84.4997 124.675C89.3336 123.947 92.9792 120.751 92.9792 116.917C92.9792 116.356 92.8946 115.811 92.7466 115.283C92.7804 115.238 92.81 115.191 92.8438 115.146C93.5713 115.264 94.3198 115.333 95.0938 115.333C99.2299 115.333 102.778 113.535 104.512 110.944C107.219 113.595 111.439 115.333 116.24 115.333C120.706 115.333 124.664 113.82 127.379 111.476C130.45 113.848 134.738 115.333 139.5 115.333C144.262 115.333 148.55 113.848 151.621 111.476C154.336 113.82 158.294 115.333 162.76 115.333C167.561 115.333 171.781 113.595 174.488 110.944C176.222 113.535 179.77 115.333 183.906 115.333C184.744 115.333 185.547 115.241 186.325 115.105C186.143 115.688 186.021 116.29 186.021 116.917C186.021 120.751 189.666 123.947 194.5 124.675C194.5 124.729 194.479 124.779 194.479 124.833C194.479 127.598 196.86 129.925 200.159 130.787C199.241 131.8 198.708 133.019 198.708 134.333C198.708 134.697 198.784 135.043 198.865 135.388C209.235 125.916 192.851 121.097 193.253 114.507C193.523 110.172 189.138 110.213 185.014 107.293Z" fill="#0A0603"/>
<path opacity="0.78" d="M184.816 107.537C181.606 105.257 179.406 103.319 177.317 103.221C172.631 103.002 169.02 104.573 164.393 103.981C160.735 103.512 154.467 101.704 151.891 101.9C148.813 102.138 144.981 103.639 140.938 103.639C134.649 103.639 130.488 101.618 125.819 101.618C121.403 101.618 120.388 103.921 114.019 105.469C107.646 107.018 104.914 103.62 100.951 104.909C96.7558 106.273 96.4048 108.544 91.0253 109.443C84.5758 110.52 89.1687 118.342 82.5923 121.644C80.2155 122.838 71.0678 129.194 80.2917 134.333C80.2917 133.019 79.7588 131.8 78.841 130.787C82.1398 129.925 84.5208 127.598 84.5208 124.833C84.5208 124.779 84.4997 124.729 84.4997 124.675C89.3336 123.947 92.9792 120.751 92.9792 116.917C92.9792 116.356 92.8946 115.811 92.7465 115.283C92.7804 115.238 92.81 115.191 92.8438 115.146C93.5712 115.264 94.3198 115.333 95.0937 115.333C99.2299 115.333 102.778 113.535 104.512 110.944C107.219 113.595 111.439 115.333 116.24 115.333C120.706 115.333 124.664 113.82 127.379 111.476C130.45 113.848 134.738 115.333 139.5 115.333C144.262 115.333 148.55 113.848 151.621 111.476C154.336 113.82 158.294 115.333 162.76 115.333C167.561 115.333 171.781 113.595 174.488 110.944C176.222 113.535 179.77 115.333 183.906 115.333C184.744 115.333 185.547 115.241 186.325 115.105C186.143 115.688 186.021 116.29 186.021 116.917C186.021 120.751 189.666 123.947 194.5 124.675C194.5 124.729 194.479 124.779 194.479 124.833C194.479 127.598 196.86 129.925 200.159 130.787C199.241 131.8 198.708 133.019 198.708 134.333C198.708 134.697 198.784 135.043 198.865 135.388C209.239 125.853 192.576 121.059 193.134 114.409C193.498 110.127 188.821 110.387 184.816 107.537Z" fill="#0A0603"/>
<path opacity="0.8" d="M184.617 107.784C181.415 105.498 179.36 103.534 177.271 103.436C172.585 103.218 168.918 104.969 164.291 104.377C160.633 103.908 154.399 101.922 151.824 102.116C148.728 102.347 145.028 104.044 140.984 104.044C134.696 104.044 130.568 101.815 125.899 101.815C121.484 101.815 120.591 104.307 114.222 105.855C107.853 107.404 104.986 103.8 101.023 105.089C96.8277 106.454 96.6078 108.864 91.2241 109.687C84.6942 110.685 89.2913 118.563 82.6093 121.777C80.1902 122.933 71.1778 129.162 80.2917 134.333C80.2917 133.019 79.7588 131.8 78.8411 130.787C82.1398 129.925 84.5208 127.598 84.5208 124.833C84.5208 124.779 84.4997 124.729 84.4997 124.675C89.3336 123.947 92.9792 120.751 92.9792 116.917C92.9792 116.356 92.8946 115.811 92.7466 115.283C92.7804 115.238 92.81 115.191 92.8438 115.146C93.5713 115.264 94.3198 115.333 95.0938 115.333C99.2299 115.333 102.778 113.535 104.512 110.944C107.219 113.595 111.439 115.333 116.24 115.333C120.706 115.333 124.664 113.82 127.379 111.476C130.45 113.848 134.738 115.333 139.5 115.333C144.262 115.333 148.55 113.848 151.621 111.476C154.336 113.82 158.294 115.333 162.76 115.333C167.561 115.333 171.781 113.595 174.488 110.944C176.222 113.535 179.77 115.333 183.906 115.333C184.744 115.333 185.547 115.241 186.325 115.105C186.143 115.688 186.021 116.29 186.021 116.917C186.021 120.751 189.666 123.947 194.5 124.675C194.5 124.729 194.479 124.779 194.479 124.833C194.479 127.598 196.86 129.925 200.159 130.787C199.241 131.8 198.708 133.019 198.708 134.333C198.708 134.697 198.784 135.043 198.865 135.388C209.243 125.786 192.297 121.017 193.016 114.314C193.468 110.08 188.508 110.558 184.617 107.784Z" fill="#0A0603"/>
<path opacity="0.82" d="M184.418 108.028C181.221 105.738 179.309 103.747 177.22 103.648C172.534 103.43 168.812 105.365 164.181 104.769C160.523 104.301 154.323 102.138 151.743 102.325C148.631 102.55 145.061 104.44 141.018 104.44C134.729 104.44 130.636 102.002 125.967 102.002C121.551 102.002 120.786 104.684 114.413 106.229C108.039 107.775 105.045 103.968 101.082 105.257C96.8869 106.622 96.7981 109.168 91.4144 109.915C84.8042 110.834 89.4097 118.769 82.6177 121.892C80.1606 123.028 71.2878 129.134 80.2917 134.333C80.2917 133.019 79.7588 131.8 78.8411 130.787C82.1398 129.925 84.5208 127.598 84.5208 124.833C84.5208 124.78 84.4997 124.729 84.4997 124.675C89.3336 123.947 92.9792 120.752 92.9792 116.917C92.9792 116.356 92.8946 115.812 92.7466 115.283C92.7804 115.238 92.81 115.191 92.8438 115.147C93.5712 115.264 94.3198 115.333 95.0937 115.333C99.2299 115.333 102.778 113.535 104.512 110.944C107.219 113.595 111.439 115.333 116.24 115.333C120.706 115.333 124.664 113.82 127.379 111.476C130.45 113.848 134.738 115.333 139.5 115.333C144.262 115.333 148.55 113.848 151.621 111.476C154.336 113.82 158.294 115.333 162.76 115.333C167.561 115.333 171.781 113.595 174.488 110.944C176.222 113.535 179.77 115.333 183.906 115.333C184.744 115.333 185.547 115.242 186.325 115.105C186.143 115.688 186.021 116.29 186.021 116.917C186.021 120.752 189.666 123.947 194.5 124.675C194.5 124.729 194.479 124.78 194.479 124.833C194.479 127.598 196.86 129.925 200.159 130.787C199.241 131.8 198.708 133.019 198.708 134.333C198.708 134.698 198.784 135.043 198.865 135.388C209.247 125.723 192.014 120.976 192.893 114.216C193.439 110.032 188.19 110.729 184.418 108.028Z" fill="#0A0603"/>
<path opacity="0.84" d="M184.219 108.272C181.03 105.976 179.263 103.959 177.173 103.864C172.487 103.645 168.711 105.761 164.08 105.168C160.422 104.7 154.256 102.359 151.676 102.54C148.546 102.758 145.108 104.842 141.065 104.842C134.776 104.842 130.72 102.198 126.051 102.198C121.636 102.198 120.993 105.07 114.624 106.615C108.251 108.164 105.125 104.149 101.163 105.438C96.9673 106.802 97.0095 109.484 91.6216 110.156C84.931 110.992 89.5408 118.988 82.6431 122.021C80.1352 123.126 71.3935 129.102 80.2916 134.333C80.2916 133.019 79.7588 131.8 78.841 130.787C82.1398 129.925 84.5208 127.598 84.5208 124.833C84.5208 124.779 84.4997 124.729 84.4997 124.675C89.3336 123.947 92.9791 120.751 92.9791 116.917C92.9791 116.356 92.8946 115.811 92.7465 115.283C92.7804 115.238 92.81 115.191 92.8438 115.146C93.5712 115.264 94.3198 115.333 95.0937 115.333C99.2299 115.333 102.778 113.535 104.512 110.944C107.219 113.595 111.439 115.333 116.24 115.333C120.706 115.333 124.664 113.82 127.379 111.476C130.45 113.848 134.738 115.333 139.5 115.333C144.262 115.333 148.55 113.848 151.621 111.476C154.336 113.82 158.294 115.333 162.76 115.333C167.561 115.333 171.781 113.595 174.488 110.944C176.222 113.535 179.77 115.333 183.906 115.333C184.744 115.333 185.547 115.241 186.325 115.105C186.143 115.688 186.021 116.29 186.021 116.917C186.021 120.751 189.666 123.947 194.5 124.675C194.5 124.729 194.479 124.779 194.479 124.833C194.479 127.598 196.86 129.925 200.159 130.787C199.241 131.8 198.708 133.019 198.708 134.333C198.708 134.697 198.784 135.043 198.865 135.388C209.252 125.657 191.726 120.935 192.775 114.117C193.409 109.985 187.877 110.903 184.219 108.272Z" fill="#0A0603"/>
<path opacity="0.86" d="M184.02 108.519C180.836 106.22 179.212 104.177 177.123 104.079C172.437 103.861 168.605 106.156 163.974 105.564C160.316 105.096 154.184 102.581 151.6 102.755C148.457 102.968 145.146 105.248 141.103 105.248C134.814 105.248 130.792 102.394 126.123 102.394C121.708 102.394 121.188 105.453 114.819 107.002C108.449 108.55 105.189 104.329 101.226 105.618C97.0307 106.983 97.2041 109.798 91.8161 110.4C85.0452 111.153 89.6635 119.209 82.6557 122.154C80.1098 123.222 71.5034 129.07 80.2916 134.333C80.2916 133.019 79.7588 131.8 78.841 130.787C82.1398 129.925 84.5208 127.598 84.5208 124.833C84.5208 124.78 84.4997 124.729 84.4997 124.675C89.3336 123.947 92.9791 120.752 92.9791 116.917C92.9791 116.356 92.8946 115.812 92.7465 115.283C92.7804 115.238 92.81 115.191 92.8438 115.147C93.5712 115.264 94.3198 115.333 95.0937 115.333C99.2299 115.333 102.778 113.535 104.512 110.944C107.219 113.595 111.439 115.333 116.24 115.333C120.706 115.333 124.664 113.82 127.379 111.476C130.45 113.848 134.738 115.333 139.5 115.333C144.262 115.333 148.55 113.848 151.621 111.476C154.336 113.82 158.294 115.333 162.76 115.333C167.561 115.333 171.781 113.595 174.488 110.944C176.222 113.535 179.77 115.333 183.906 115.333C184.744 115.333 185.547 115.242 186.325 115.105C186.143 115.688 186.021 116.29 186.021 116.917C186.021 120.752 189.666 123.947 194.5 124.675C194.5 124.729 194.479 124.78 194.479 124.833C194.479 127.598 196.86 129.925 200.159 130.787C199.241 131.8 198.708 133.019 198.708 134.333C198.708 134.698 198.784 135.043 198.865 135.388C209.256 125.593 191.434 120.894 192.652 114.019C193.38 109.934 187.56 111.074 184.02 108.519Z" fill="#0A0603"/>
<path opacity="0.88" d="M183.826 108.762C180.65 106.457 179.17 104.389 177.08 104.291C172.395 104.073 168.504 106.552 163.877 105.957C160.219 105.488 154.12 102.793 151.536 102.964C148.377 103.167 145.197 105.643 141.154 105.643C134.865 105.643 130.877 102.584 126.212 102.584C121.797 102.584 121.403 105.833 115.03 107.382C108.657 108.93 105.269 104.503 101.306 105.792C97.1111 107.157 97.4198 110.108 92.0234 110.634C85.1722 111.305 89.7989 119.421 82.677 122.278C80.0802 123.316 71.6135 129.042 80.2917 134.333C80.2917 133.019 79.7588 131.8 78.8411 130.787C82.1398 129.925 84.5209 127.598 84.5209 124.833C84.5209 124.779 84.4997 124.729 84.4997 124.675C89.3337 123.947 92.9792 120.751 92.9792 116.917C92.9792 116.356 92.8946 115.811 92.7466 115.283C92.7804 115.238 92.81 115.191 92.8439 115.146C93.5713 115.264 94.3198 115.333 95.0938 115.333C99.2299 115.333 102.778 113.535 104.512 110.944C107.219 113.595 111.44 115.333 116.24 115.333C120.706 115.333 124.664 113.82 127.379 111.476C130.45 113.848 134.738 115.333 139.5 115.333C144.262 115.333 148.55 113.848 151.621 111.476C154.336 113.82 158.294 115.333 162.76 115.333C167.561 115.333 171.781 113.595 174.488 110.944C176.222 113.535 179.77 115.333 183.906 115.333C184.744 115.333 185.547 115.241 186.325 115.105C186.144 115.688 186.021 116.29 186.021 116.917C186.021 120.751 189.666 123.947 194.5 124.675C194.5 124.729 194.479 124.779 194.479 124.833C194.479 127.598 196.86 129.925 200.159 130.787C199.241 131.8 198.708 133.019 198.708 134.333C198.708 134.697 198.784 135.043 198.865 135.388C209.256 125.53 191.142 120.846 192.534 113.921C193.346 109.883 187.247 111.245 183.826 108.762Z" fill="#0A0603"/>
<path opacity="0.9" d="M183.627 109.01C180.455 106.698 179.119 104.605 177.03 104.507C172.344 104.288 168.398 106.948 163.767 106.356C160.109 105.887 154.044 103.015 151.46 103.183C148.284 103.379 145.235 106.049 141.192 106.049C134.903 106.049 130.953 102.781 126.284 102.781C121.869 102.781 121.598 106.22 115.225 107.765C108.851 109.314 105.333 104.681 101.37 105.97C97.1745 107.334 97.6143 110.419 92.2137 110.872C85.2821 111.457 89.913 119.637 82.6854 122.405C80.0548 123.415 71.7191 129.01 80.2917 134.333C80.2917 133.019 79.7588 131.8 78.841 130.787C82.1398 129.925 84.5208 127.598 84.5208 124.833C84.5208 124.78 84.4997 124.729 84.4997 124.675C89.3336 123.947 92.9792 120.752 92.9792 116.917C92.9792 116.356 92.8946 115.812 92.7465 115.283C92.7804 115.238 92.81 115.191 92.8438 115.147C93.5712 115.264 94.3198 115.333 95.0937 115.333C99.2299 115.333 102.778 113.535 104.512 110.944C107.219 113.595 111.439 115.333 116.24 115.333C120.706 115.333 124.664 113.82 127.379 111.476C130.45 113.848 134.738 115.333 139.5 115.333C144.262 115.333 148.55 113.848 151.621 111.476C154.336 113.82 158.294 115.333 162.76 115.333C167.561 115.333 171.781 113.595 174.488 110.944C176.222 113.535 179.77 115.333 183.906 115.333C184.744 115.333 185.547 115.242 186.325 115.105C186.143 115.688 186.021 116.29 186.021 116.917C186.021 120.752 189.666 123.947 194.5 124.675C194.5 124.729 194.479 124.78 194.479 124.833C194.479 127.598 196.86 129.925 200.159 130.787C199.241 131.8 198.708 133.019 198.708 134.333C198.708 134.698 198.784 135.043 198.865 135.388C209.26 125.464 190.842 120.802 192.411 113.823C193.312 109.833 186.93 111.416 183.627 109.01Z" fill="#0A0603"/>
<path opacity="0.92" d="M183.428 109.253C180.265 106.935 179.068 104.82 176.979 104.722C172.293 104.503 168.292 107.344 163.661 106.752C160.003 106.283 153.972 103.237 151.384 103.395C148.191 103.585 145.273 106.451 141.23 106.451C134.941 106.451 131.025 102.977 126.356 102.977C121.94 102.977 121.792 106.603 115.423 108.151C109.054 109.7 105.4 104.858 101.437 106.15C97.2421 107.515 97.8173 110.732 92.4124 111.115C85.4047 111.612 90.0399 119.855 82.7023 122.534C80.0294 123.51 71.8291 128.978 80.2916 134.333C80.2916 133.019 79.7588 131.8 78.841 130.787C82.1398 129.925 84.5208 127.598 84.5208 124.833C84.5208 124.779 84.4997 124.729 84.4997 124.675C89.3336 123.947 92.9791 120.751 92.9791 116.917C92.9791 116.356 92.8946 115.811 92.7465 115.283C92.7804 115.238 92.81 115.191 92.8438 115.146C93.5712 115.264 94.3198 115.333 95.0937 115.333C99.2298 115.333 102.778 113.535 104.512 110.944C107.219 113.595 111.439 115.333 116.24 115.333C120.706 115.333 124.664 113.82 127.379 111.476C130.45 113.848 134.738 115.333 139.5 115.333C144.262 115.333 148.55 113.848 151.621 111.476C154.336 113.82 158.294 115.333 162.76 115.333C167.56 115.333 171.781 113.595 174.488 110.944C176.222 113.535 179.77 115.333 183.906 115.333C184.744 115.333 185.547 115.241 186.325 115.105C186.143 115.688 186.021 116.29 186.021 116.917C186.021 120.751 189.666 123.947 194.5 124.675C194.5 124.729 194.479 124.779 194.479 124.833C194.479 127.598 196.86 129.925 200.159 130.787C199.241 131.8 198.708 133.019 198.708 134.333C198.708 134.697 198.784 135.043 198.865 135.388C209.264 125.4 190.542 120.755 192.293 113.728C193.278 109.782 186.617 111.59 183.428 109.253Z" fill="#0A0603"/>
<path opacity="0.94" d="M183.23 109.497C180.075 107.173 179.022 105.032 176.932 104.934C172.246 104.715 168.191 107.74 163.56 107.147C159.901 106.679 153.905 103.455 151.316 103.607C148.106 103.791 145.319 106.85 141.276 106.85C134.987 106.85 131.105 103.167 126.44 103.167C122.025 103.167 122.004 106.983 115.631 108.531C109.257 110.08 105.476 105.032 101.514 106.324C97.3183 107.689 98.0288 111.036 92.6154 111.35C85.5316 111.761 90.1625 120.055 82.7234 122.658C79.9998 123.601 71.9348 128.95 80.2916 134.333C80.2916 133.019 79.7588 131.8 78.841 130.787C82.1398 129.925 84.5208 127.598 84.5208 124.833C84.5208 124.779 84.4997 124.729 84.4997 124.675C89.3336 123.947 92.9791 120.751 92.9791 116.917C92.9791 116.356 92.8946 115.811 92.7465 115.283C92.7804 115.238 92.81 115.191 92.8438 115.146C93.5712 115.264 94.3198 115.333 95.0937 115.333C99.2298 115.333 102.778 113.535 104.512 110.944C107.219 113.595 111.439 115.333 116.24 115.333C120.706 115.333 124.664 113.82 127.379 111.476C130.45 113.848 134.738 115.333 139.5 115.333C144.262 115.333 148.55 113.848 151.621 111.476C154.336 113.82 158.294 115.333 162.76 115.333C167.56 115.333 171.781 113.595 174.488 110.944C176.222 113.535 179.77 115.333 183.906 115.333C184.744 115.333 185.547 115.241 186.325 115.105C186.143 115.688 186.021 116.29 186.021 116.917C186.021 120.751 189.666 123.947 194.5 124.675C194.5 124.729 194.479 124.779 194.479 124.833C194.479 127.598 196.86 129.925 200.159 130.787C199.241 131.8 198.708 133.019 198.708 134.333C198.708 134.697 198.784 135.043 198.865 135.388C209.269 125.337 190.233 120.704 192.174 113.63C193.244 109.728 186.3 111.761 183.23 109.497Z" fill="#0D0A06"/>
<path opacity="0.96" d="M183.031 109.744C179.884 107.414 178.971 105.248 176.882 105.149C172.196 104.931 168.081 108.136 163.454 107.543C159.796 107.075 153.833 103.677 151.244 103.823C148.018 104 145.362 107.252 141.319 107.252C135.03 107.252 131.185 103.363 126.516 103.363C122.101 103.363 122.203 107.369 115.829 108.915C109.456 110.463 105.544 105.21 101.581 106.498C97.3859 107.863 98.2318 111.343 92.81 111.587C85.6458 111.907 90.2852 120.273 82.7361 122.785C79.9745 123.697 72.0448 128.918 80.2917 134.333C80.2917 133.019 79.7588 131.8 78.841 130.787C82.1398 129.925 84.5208 127.598 84.5208 124.833C84.5208 124.78 84.4997 124.729 84.4997 124.675C89.3336 123.947 92.9792 120.752 92.9792 116.917C92.9792 116.356 92.8946 115.812 92.7465 115.283C92.7804 115.238 92.81 115.191 92.8438 115.147C93.5712 115.264 94.3198 115.333 95.0937 115.333C99.2299 115.333 102.778 113.535 104.512 110.944C107.219 113.595 111.439 115.333 116.24 115.333C120.706 115.333 124.664 113.82 127.379 111.476C130.45 113.848 134.738 115.333 139.5 115.333C144.262 115.333 148.55 113.848 151.621 111.476C154.336 113.82 158.294 115.333 162.76 115.333C167.56 115.333 171.781 113.595 174.488 110.944C176.222 113.535 179.77 115.333 183.906 115.333C184.744 115.333 185.547 115.242 186.325 115.105C186.143 115.688 186.021 116.29 186.021 116.917C186.021 120.752 189.666 123.947 194.5 124.675C194.5 124.729 194.479 124.78 194.479 124.833C194.479 127.598 196.86 129.925 200.159 130.787C199.241 131.8 198.708 133.019 198.708 134.333C198.708 134.698 198.784 135.043 198.865 135.388C209.273 125.27 189.924 120.65 192.052 113.532C193.206 109.675 185.987 111.932 183.031 109.744Z" fill="#0A0603"/>
<path opacity="0.98" d="M182.832 109.988C179.698 107.648 178.924 105.46 176.835 105.362C172.149 105.143 167.979 108.528 163.348 107.936C159.69 107.467 153.761 103.892 151.168 104.032C147.929 104.203 145.4 107.651 141.357 107.651C135.068 107.651 131.257 103.553 126.588 103.553C122.173 103.553 122.397 107.749 116.028 109.295C109.655 110.843 105.612 105.384 101.649 106.673C97.4536 108.037 98.4348 111.647 93.0088 111.822C85.7727 112.053 90.4163 120.489 82.753 122.908C79.9491 123.795 72.1547 128.887 80.2917 134.333C80.2917 133.019 79.7588 131.8 78.841 130.787C82.1398 129.925 84.5208 127.598 84.5208 124.833C84.5208 124.78 84.4997 124.729 84.4997 124.675C89.3336 123.947 92.9792 120.752 92.9792 116.917C92.9792 116.356 92.8946 115.812 92.7465 115.283C92.7804 115.238 92.81 115.191 92.8438 115.147C93.5712 115.264 94.3198 115.333 95.0937 115.333C99.2299 115.333 102.778 113.535 104.512 110.944C107.219 113.595 111.439 115.333 116.24 115.333C120.706 115.333 124.664 113.82 127.379 111.476C130.45 113.848 134.738 115.333 139.5 115.333C144.262 115.333 148.55 113.848 151.621 111.476C154.336 113.82 158.294 115.333 162.76 115.333C167.561 115.333 171.781 113.595 174.488 110.944C176.222 113.535 179.77 115.333 183.906 115.333C184.744 115.333 185.547 115.242 186.325 115.105C186.143 115.688 186.021 116.29 186.021 116.917C186.021 120.752 189.666 123.947 194.5 124.675C194.5 124.729 194.479 124.78 194.479 124.833C194.479 127.598 196.86 129.925 200.159 130.787C199.241 131.8 198.708 133.019 198.708 134.333C198.708 134.698 198.784 135.043 198.865 135.388C209.277 125.207 189.611 120.596 191.933 113.433C193.168 109.618 185.678 112.1 182.832 109.988Z" fill="#0A0603"/>
<path d="M182.633 110.232C179.504 107.889 178.874 105.675 176.784 105.577C172.098 105.358 167.873 108.927 163.243 108.335C159.584 107.866 153.689 104.117 151.096 104.247C147.84 104.415 145.442 108.053 141.399 108.053C135.11 108.053 131.338 103.747 126.669 103.747C122.253 103.747 122.604 108.129 116.231 109.678C109.858 111.226 105.684 105.561 101.721 106.85C97.5255 108.215 98.6462 111.955 93.2075 112.059C85.8953 112.198 90.5431 120.707 82.7699 123.035C79.9195 123.89 72.2604 128.858 80.2916 134.333C80.2916 133.019 79.7588 131.8 78.841 130.787C82.1398 129.925 84.5208 127.598 84.5208 124.833C84.5208 124.78 84.4996 124.729 84.4996 124.675C89.3336 123.947 92.9791 120.752 92.9791 116.917C92.9791 116.356 92.8945 115.812 92.7465 115.283C92.7804 115.238 92.81 115.191 92.8438 115.147C93.5712 115.264 94.3198 115.333 95.0937 115.333C99.2298 115.333 102.778 113.535 104.512 110.944C107.219 113.595 111.439 115.333 116.24 115.333C120.706 115.333 124.664 113.82 127.379 111.476C130.45 113.848 134.738 115.333 139.5 115.333C144.262 115.333 148.55 113.848 151.621 111.476C154.336 113.82 158.294 115.333 162.76 115.333C167.561 115.333 171.781 113.595 174.488 110.944C176.222 113.535 179.77 115.333 183.906 115.333C184.744 115.333 185.547 115.242 186.325 115.105C186.143 115.688 186.021 116.29 186.021 116.917C186.021 120.752 189.666 123.947 194.5 124.675C194.5 124.729 194.479 124.78 194.479 124.833C194.479 127.598 196.86 129.925 200.159 130.787C199.241 131.8 198.708 133.019 198.708 134.333C198.708 134.698 198.784 135.043 198.865 135.388C209.281 125.144 189.294 120.543 191.811 113.335C193.134 109.561 185.361 112.274 182.633 110.232Z" fill="#0A0603"/>
<path opacity="0.1" d="M134.463 67.0132C128.102 64.5622 118.532 68.2989 124.74 72.0767C130.868 75.807 130.378 76.1395 129.177 77.7197C128.28 78.904 124.99 81.9345 123.683 85.1582C122.372 88.3819 128.428 93.3155 135.165 88.48C141.902 83.6445 147.413 84.4235 156.582 86.105C165.75 87.7865 166.854 80.1454 161.162 77.5075C153.304 73.8659 147.299 74.705 145.239 73.2357C142.735 71.4465 139.703 68.9037 134.463 67.0132Z" fill="#0A0603"/>
<path opacity="0.229" d="M134.421 88.1918C140.194 84.0467 145.835 83.0175 156.573 85.497C164.913 87.0582 166.102 80.329 160.633 77.8463C153.308 74.5023 147.227 75.066 145.006 73.8437C142.566 72.0102 139.246 69.2298 134.028 67.428C128.052 65.1955 119.94 68.5427 125.561 71.9088C130.991 75.161 131.422 75.94 130.581 77.7387C129.117 78.9642 125.721 82.0232 124.36 85.1645C122.998 88.3058 128.648 92.3338 134.421 88.1918Z" fill="#0A0603"/>
<path opacity="0.357" d="M133.676 87.9005C138.489 84.4489 144.258 81.6052 156.569 84.8827C164.08 86.3235 165.344 80.5159 160.109 78.1789C153.308 75.1484 147.159 75.4175 144.778 74.4454C142.401 72.5644 138.798 69.5497 133.605 67.8365C128.018 65.8257 121.361 68.777 126.394 71.7347C131.122 74.5119 132.48 75.7374 131.997 77.7482C129.967 79.0149 126.47 82.0992 125.053 85.1614C123.628 88.2299 128.864 91.3554 133.676 87.9005Z" fill="#0A0603"/>
<path opacity="0.486" d="M132.928 87.6092C136.776 84.8478 142.676 80.196 156.556 84.2715C163.238 85.592 164.583 80.6963 159.576 78.5177C153.308 75.7912 147.083 75.7753 144.541 75.0565C142.228 73.1312 138.341 69.8822 133.169 68.2577C127.971 66.4653 122.765 69.0272 127.214 71.5732C131.24 73.8785 133.524 75.5442 133.402 77.7703C130.805 79.0782 127.202 82.191 125.73 85.174C124.254 88.1538 129.079 90.3737 132.928 87.6092Z" fill="#0D0A06"/>
<path opacity="0.614" d="M132.184 87.3178C135.072 85.2468 141.099 78.7837 156.548 83.6572C162.401 84.8573 163.826 80.8768 159.043 78.8502C153.308 76.4245 147.007 76.1268 144.304 75.6582C142.054 73.6885 137.884 70.202 132.733 68.6662C127.921 67.0955 124.169 69.2678 128.03 71.3958C131.355 73.2293 134.565 75.3383 134.797 77.7798C131.634 79.1288 127.925 82.2702 126.402 85.1708C124.884 88.0778 129.295 89.392 132.184 87.3178Z" fill="#1F1E1E"/>
<path opacity="0.743" d="M131.439 87.0297C133.363 85.649 139.521 77.3777 156.539 83.0492C161.564 84.129 163.073 81.0573 158.514 79.1922C153.317 77.0642 146.935 76.491 144.072 76.2693C141.885 74.2553 137.432 70.5313 132.302 69.0873C127.878 67.7352 125.578 69.5212 128.855 71.2343C131.469 72.5992 135.613 75.1483 136.205 77.802C132.475 79.1922 128.661 82.3588 127.083 85.1803C125.51 88.0018 129.515 88.4103 131.439 87.0297Z" fill="#1D1A18"/>
<path opacity="0.871" d="M130.695 86.7383C131.659 86.048 137.944 75.9685 156.531 82.4349C160.726 83.3944 162.325 81.2315 157.986 79.5247C153.329 77.6912 146.863 76.8425 143.843 76.871C141.72 74.8127 136.979 70.8543 131.879 69.4958C127.84 68.3653 126.982 69.7714 129.688 71.0602C131.587 71.9659 136.671 74.9425 137.622 77.8115C133.325 79.2429 129.405 82.438 127.773 85.1804C126.14 87.9227 129.731 87.4287 130.695 86.7383Z" fill="#0A0603"/>
<path d="M129.946 86.447C129.946 86.447 136.362 74.5562 156.518 81.8237C159.885 82.6629 161.572 81.4025 157.453 79.8635C153.338 78.3214 146.787 77.2004 143.607 77.4822C141.547 75.3795 136.523 71.1837 131.443 69.917C127.794 69.005 128.356 70.0564 130.509 70.8987C131.68 71.3579 137.715 74.7525 139.022 77.8337C134.159 79.3062 130.132 82.5267 128.449 85.1899C126.766 87.853 129.946 86.447 129.946 86.447Z" fill="#0A0603"/>
<path opacity="0.1" d="M78.6676 95.7253C78.6676 95.7253 86.1659 94.1673 92.4589 94.8608C94.6243 95.0983 96.3836 93.5973 96.0791 91.4123C95.5039 87.2671 95.2671 82.2195 101.323 77.7798C104.288 75.5821 99.3398 72.7765 95.9395 74.097C89.3336 76.6588 87.0287 82.1751 86.7792 86.1366C86.7284 86.9568 85.946 87.6218 84.876 87.8055C81.4293 88.404 77.5046 90.3135 75.8383 91.7511C73.0894 94.123 77.2255 96.213 78.6676 95.7253Z" fill="#0A0603"/>
<path opacity="0.229" d="M78.8621 95.3674C78.8621 95.3674 86.1363 93.8854 92.2728 94.5378C94.2859 94.7531 95.9184 93.3693 95.6646 91.3806C95.1444 87.3368 94.9161 82.1339 100.82 77.8051C103.713 75.6644 99.2552 73.2071 96.0326 74.4991C89.655 77.0704 87.4896 82.7103 87.2528 86.5736C87.2021 87.3748 86.4366 88.0208 85.3962 88.2013C82.0382 88.7839 78.0544 90.5161 76.4177 91.8524C73.7575 94.0311 77.4538 95.8393 78.8621 95.3674Z" fill="#0A0603"/>
<path opacity="0.357" d="M79.0525 95.0096C79.0525 95.0096 86.1025 93.6068 92.0868 94.2116C93.9476 94.4048 95.4574 93.1413 95.2459 91.3426C94.785 87.4033 94.5608 82.0421 100.312 77.8241C103.129 75.7373 99.1621 73.6219 96.1214 74.8918C89.9595 77.4631 87.9506 83.2391 87.718 87.0011C87.6715 87.7801 86.9229 88.4103 85.9079 88.5876C82.6346 89.1545 78.5957 90.7061 76.9929 91.9443C74.4173 93.9361 77.6822 95.4688 79.0525 95.0096Z" fill="#0A0603"/>
<path opacity="0.486" d="M79.247 94.6486C79.247 94.6486 86.0729 93.3123 91.9007 93.8854C93.605 94.0533 94.9964 92.9101 94.8315 91.3078C94.4339 87.4698 94.2056 81.9534 99.8092 77.8463C102.55 75.8133 99.0776 74.0463 96.2144 75.2908C90.2767 77.8716 88.4158 83.7711 88.1875 87.4349C88.1409 88.195 87.4135 88.8093 86.4281 88.9803C83.2436 89.5344 79.1455 90.9056 77.5765 92.0393C75.0855 93.8443 77.9106 95.0983 79.247 94.6486Z" fill="#0D0A06"/>
<path opacity="0.614" d="M79.4373 94.2908C79.4373 94.2908 86.039 93.0305 91.7146 93.5625C93.2667 93.7082 94.5397 92.6822 94.4128 91.2762C94.0787 87.5363 93.8503 81.868 99.3017 77.8717C101.97 75.8957 98.993 74.4738 96.3032 75.693C90.5896 78.2833 88.8768 84.3063 88.6527 87.872C88.6061 88.6098 87.8999 89.2083 86.9398 89.3762C83.8399 89.9145 79.6868 91.1052 78.1474 92.1407C75.7537 93.7525 78.1389 94.7278 79.4373 94.2908Z" fill="#1F1E1E"/>
<path opacity="0.743" d="M79.6319 93.933C79.6319 93.933 86.0052 92.7518 91.5285 93.2395C92.9284 93.363 94.0829 92.4541 93.9983 91.2445C93.7404 87.606 93.4993 81.7825 98.7942 77.897C101.387 75.9748 98.9042 74.9045 96.392 76.0951C90.9026 78.695 89.3378 84.8446 89.1221 88.309C89.0756 89.0278 88.3905 89.6073 87.4558 89.7688C84.4404 90.2913 80.2366 91.3046 78.7268 92.2388C76.4219 93.6638 78.3673 94.3573 79.6319 93.933Z" fill="#1D1A18"/>
<path opacity="0.871" d="M79.8222 93.572C79.8222 93.572 85.9672 92.4795 91.3424 92.9133C92.59 93.0178 93.6304 92.223 93.5797 91.2065C93.402 87.6693 93.1398 81.6906 98.2867 77.916C100.807 76.0476 98.8196 75.332 96.4809 76.491C91.2283 79.113 89.7946 85.3735 89.5873 88.7396C89.545 89.4363 88.8768 90 87.9676 90.1583C85.041 90.6681 80.7822 91.5041 79.302 92.3306C77.0902 93.5751 78.5957 93.9868 79.8222 93.572Z" fill="#0A0603"/>
<path d="M80.0167 93.2141C80.0167 93.2141 85.9375 92.2008 91.1563 92.5871C92.2475 92.6694 93.1821 91.9949 93.1652 91.1716C93.0891 87.7358 92.7888 81.6019 97.7834 77.9381C100.228 76.1268 98.735 75.7563 96.5739 76.8899C91.5454 79.5214 90.2597 85.9054 90.0567 89.1734C90.0145 89.8511 89.3674 90.3989 88.4877 90.5509C85.6457 91.0449 81.3362 91.7036 79.8814 92.4288C77.7626 93.4896 78.8241 93.6163 80.0167 93.2141Z" fill="#0A0603"/>
<path opacity="0.1" d="M175.651 87.3305C178.717 85.0948 185.915 84.2873 181.47 81.6368C178.434 79.8255 181.969 78.0775 184.803 78.2675C188.309 78.5018 193.68 81.0098 193.659 83.1663C193.853 85.4653 204.824 87.872 207.09 97.03C207.733 99.6267 203.327 101.805 200.26 98.6577C194.61 92.8532 189.184 90.4592 186.642 90.5225C184.706 90.5732 182.003 91.026 179.635 91.6562C176.552 92.4763 171.764 90.3198 175.651 87.3305Z" fill="#0A0603"/>
<path opacity="0.229" d="M176.18 87.4096C179.161 85.2341 186.575 84.2556 182.096 81.6336C179.123 79.8888 182.443 78.3815 185.154 78.657C188.393 78.9895 193.122 81.3486 193.096 83.4133C193.261 85.668 204.198 87.8276 206.482 96.7291C207.086 99.1263 203.183 101.071 200.447 98.1573C194.987 92.3496 189.269 90.0126 186.795 90.0633C184.773 90.0981 182.122 90.6491 179.817 91.2603C176.818 92.0615 172.644 90.1235 176.18 87.4096Z" fill="#0A0603"/>
<path opacity="0.357" d="M176.712 87.4889C179.614 85.3704 187.243 84.2272 182.726 81.6305C179.817 79.949 182.917 78.6792 185.509 79.0497C188.482 79.474 192.572 81.6907 192.534 83.6604C192.673 85.8739 203.601 87.7802 205.872 96.4315C206.448 98.626 203.043 100.333 200.628 97.6634C195.363 91.8462 189.353 89.582 186.947 89.6105C184.841 89.6359 182.24 90.2755 179.998 90.874C177.08 91.6467 173.524 89.9272 176.712 87.4889Z" fill="#0A0603"/>
<path opacity="0.486" d="M177.241 87.568C180.062 85.5097 187.907 84.1955 183.352 81.6273C180.506 80.0123 183.382 78.9737 185.86 79.4392C188.567 79.9458 192.018 82.0295 191.971 83.9073C192.081 86.0765 202.984 87.7327 205.268 96.1307C205.809 98.1225 202.921 99.5855 200.819 97.163C195.761 91.33 189.446 89.1387 187.104 89.1513C184.913 89.164 182.363 89.8987 180.185 90.4782C177.347 91.235 174.399 89.7277 177.241 87.568Z" fill="#0D0A06"/>
<path opacity="0.614" d="M177.774 87.6472C180.514 85.649 188.575 84.1638 183.982 81.6242C181.2 80.0725 183.855 79.265 186.215 79.8287C188.66 80.4145 191.468 82.3683 191.409 84.1543C191.493 86.2823 202.362 87.6883 204.659 95.833C205.162 97.6222 202.798 98.8414 201.005 96.669C196.162 90.8138 189.531 88.6985 187.26 88.6985C184.985 88.6953 182.485 89.525 180.366 90.0887C177.609 90.8202 175.279 89.5313 177.774 87.6472Z" fill="#1F1E1E"/>
<path opacity="0.743" d="M178.303 87.7263C180.963 85.7852 189.239 84.1353 184.608 81.621C181.889 80.1358 184.329 79.5468 186.566 80.2213C188.749 80.8768 190.914 82.7103 190.846 84.4045C190.901 86.4882 201.732 87.6472 204.05 95.5353C204.515 97.125 202.688 98.0877 201.191 96.1718C196.589 90.285 189.62 88.2583 187.412 88.2425C185.052 88.2235 182.604 89.1513 180.548 89.696C177.871 90.4053 176.154 89.335 178.303 87.7263Z" fill="#1D1A18"/>
<path opacity="0.871" d="M178.835 87.8055C181.411 85.9245 189.903 84.1036 185.238 81.6178C182.582 80.196 184.811 79.8223 186.917 80.6108C188.842 81.3296 190.36 83.0491 190.28 84.6483C190.309 86.6908 201.089 87.6028 203.437 95.2313C203.864 96.6183 202.578 97.3276 201.368 95.6715C197.042 89.7371 189.696 87.8086 187.56 87.7833C185.116 87.7453 182.718 88.7713 180.726 89.3001C178.138 89.9905 177.034 89.1355 178.835 87.8055Z" fill="#0A0603"/>
<path d="M179.364 87.8878C181.859 86.067 190.567 84.0783 185.864 81.6178C183.272 80.2625 185.302 80.0915 187.268 81.0035C188.943 81.7825 189.802 83.3912 189.717 84.8985C189.717 86.8967 200.438 87.5648 202.828 94.9368C203.212 96.1243 202.485 96.574 201.555 95.1775C197.558 89.1767 189.785 87.3717 187.712 87.3305C185.183 87.2798 182.836 88.4008 180.908 88.9138C178.4 89.5788 177.913 88.9392 179.364 87.8878Z" fill="#0A0603"/>
<defs>
<radialGradient id="paint0_radial" cx="0" cy="0" r="1" gradientUnits="userSpaceOnUse" gradientTransform="translate(139.986 128.738) scale(87.2097 65.2998)">
<stop stop-color="#0A0603"/>
<stop offset="0.232" stop-color="#0A0603"/>
<stop offset="0.474" stop-color="#120E0B"/>
<stop offset="0.629" stop-color="#0A0603"/>
<stop offset="0.853" stop-color="#0D0A06"/>
<stop offset="0.999" stop-color="#1D1A18"/>
</radialGradient>
</defs>
</svg>
